<svg width="24" height="24" viewBox="0 0 24 24" fill="none" xmlns="http://www.w3.org/2000/svg">
    <g clip-path="url(#clip0_17030_2324)">
        <path d="M23.5253 22.6314C23.2295 22.4591 21.428 21.3435 20.4642 19.3265C22.7153 17.2216 23.9956 14.2935 23.9956 11.2968C23.9956 5.09474 18.5877 0.00195312 11.9978 0.00195312C5.40792 0.00195312 0 5.09474 0 11.2968C0 17.4988 5.40792 22.5916 11.9978 22.5916C12.8824 22.5916 13.8326 22.5087 15.1436 22.2332C18.5893 24.0642 21.682 24.0127 22.8587 23.9941C23.3826 23.9876 23.7629 24.0822 23.9586 23.541C24.091 23.178 23.8951 22.7587 23.5253 22.6314ZM13.4038 16.9676C13.4038 17.744 12.7743 18.3736 11.9978 18.3736C11.2213 18.3736 10.5918 17.744 10.5918 16.9676V11.2968C10.5918 10.5202 11.2213 9.89075 11.9978 9.89075C12.7743 9.89075 13.4038 10.5202 13.4038 11.2968V16.9676ZM11.9978 7.73492C11.2213 7.73492 10.5918 7.10534 10.5918 6.32891C10.5918 5.55238 11.2213 4.92289 11.9978 4.92289C12.7743 4.92289 13.4038 5.55238 13.4038 6.32891C13.4038 7.10539 12.7743 7.73492 11.9978 7.73492Z" fill="#E20070"/>
    </g>
    <defs>
        <clipPath id="clip0_17030_2324">
            <rect width="24" height="24" fill="white"/>
        </clipPath>
    </defs>
</svg>
