<svg width="22" height="22" viewBox="0 0 22 22" fill="none" xmlns="http://www.w3.org/2000/svg">
    <path d="M11 0C4.925 0 0 4.925 0 11C0 17.075 4.925 22 11 22C17.075 22 22 17.075 22 11C22 4.925 17.075 0 11 0ZM12.5 16.5C12.5 16.7652 12.3946 17.0196 12.2071 17.2071C12.0196 17.3946 11.7652 17.5 11.5 17.5H10.5C10.2348 17.5 9.98043 17.3946 9.79289 17.2071C9.60536 17.0196 9.5 16.7652 9.5 16.5V10.5C9.5 10.2348 9.60536 9.98043 9.79289 9.79289C9.98043 9.60536 10.2348 9.5 10.5 9.5H11.5C11.7652 9.5 12.0196 9.60536 12.2071 9.79289C12.3946 9.98043 12.5 10.2348 12.5 10.5V16.5ZM11 8C10.7702 8 10.5426 7.95473 10.3303 7.86679C10.118 7.77884 9.92507 7.64994 9.76256 7.48744C9.60006 7.32493 9.47116 7.13202 9.38321 6.9197C9.29527 6.70738 9.25 6.47981 9.25 6.25C9.25 6.02019 9.29527 5.79262 9.38321 5.5803C9.47116 5.36798 9.60006 5.17507 9.76256 5.01256C9.92507 4.85006 10.118 4.72116 10.3303 4.63321C10.5426 4.54526 10.7702 4.5 11 4.5C11.4641 4.5 11.9092 4.68437 12.2374 5.01256C12.5656 5.34075 12.75 5.78587 12.75 6.25C12.75 6.71413 12.5656 7.15925 12.2374 7.48744C11.9092 7.81563 11.4641 8 11 8Z" fill="#305CDE"/>
</svg>
