<svg width="26" height="26" viewBox="0 0 26 26" fill="none" xmlns="http://www.w3.org/2000/svg">
    <path d="M13.1393 21.5647H5.76664C5.20796 21.5647 4.67217 21.3428 4.27713 20.9478C3.88209 20.5527 3.66016 20.0169 3.66016 19.4583V9.97909C3.66016 9.42042 3.88209 8.88463 4.27713 8.48959C4.67217 8.09455 5.20796 7.87261 5.76664 7.87261H6.81988C7.37855 7.87261 7.91434 7.65068 8.30939 7.25564C8.70443 6.8606 8.92636 6.32481 8.92636 5.76613C8.92636 5.48679 9.03733 5.2189 9.23485 5.02138C9.43237 4.82386 9.70026 4.71289 9.9796 4.71289H16.299C16.5784 4.71289 16.8463 4.82386 17.0438 5.02138C17.2413 5.2189 17.3523 5.48679 17.3523 5.76613C17.3523 6.32481 17.5742 6.8606 17.9693 7.25564C18.3643 7.65068 18.9001 7.87261 19.4588 7.87261H20.512C21.0707 7.87261 21.6065 8.09455 22.0015 8.48959C22.3966 8.88463 22.6185 9.42042 22.6185 9.97909V13.6654M17.3523 20.5115H23.6717M20.512 17.3518V23.6712M9.9796 14.1921C9.9796 15.0301 10.3125 15.8338 10.9051 16.4263C11.4976 17.0189 12.3013 17.3518 13.1393 17.3518C13.9773 17.3518 14.781 17.0189 15.3736 16.4263C15.9661 15.8338 16.299 15.0301 16.299 14.1921C16.299 13.354 15.9661 12.5504 15.3736 11.9578C14.781 11.3652 13.9773 11.0323 13.1393 11.0323C12.3013 11.0323 11.4976 11.3652 10.9051 11.9578C10.3125 12.5504 9.9796 13.354 9.9796 14.1921Z" stroke="white" stroke-width="2" stroke-linecap="round" stroke-linejoin="round"/>
</svg>
