<svg width="30" height="30" viewBox="0 0 30 30" fill="none" xmlns="http://www.w3.org/2000/svg">
    <path d="M15 3C21.6276 3 27 8.37174 27 14.9985C27 21.6253 21.6276 26.9971 15 26.9971C14.8412 26.9973 14.6827 26.9943 14.5244 26.9882C11.1041 26.8566 7.59161 26.1047 4.27921 26.9671C4.1072 27.0119 3.92646 27.0109 3.75492 26.9644C3.58338 26.9178 3.42698 26.8272 3.30123 26.7016C3.17548 26.576 3.08474 26.4197 3.03801 26.2483C2.99128 26.0768 2.99018 25.8961 3.03481 25.724C3.89644 22.413 3.14348 18.9023 3.00921 15.4837C3.00287 15.3222 2.99979 15.1605 3.00001 14.9985C3.00001 8.37174 8.37241 3 15 3ZM16.5024 16.1984H11.1L10.9776 16.2068C10.7622 16.2364 10.5648 16.343 10.4219 16.5069C10.279 16.6708 10.2003 16.8809 10.2003 17.0983C10.2003 17.3157 10.279 17.5258 10.4219 17.6896C10.5648 17.8535 10.7622 17.9601 10.9776 17.9898L11.1 17.9982H16.5024L16.6236 17.9898C16.839 17.9601 17.0364 17.8535 17.1793 17.6896C17.3222 17.5258 17.4009 17.3157 17.4009 17.0983C17.4009 16.8809 17.3222 16.6708 17.1793 16.5069C17.0364 16.343 16.839 16.2364 16.6236 16.2068L16.5024 16.1984ZM18.9 11.9989H11.1L10.9776 12.0073C10.7622 12.0369 10.5648 12.1435 10.4219 12.3074C10.279 12.4713 10.2003 12.6814 10.2003 12.8988C10.2003 13.1162 10.279 13.3263 10.4219 13.4902C10.5648 13.654 10.7622 13.7606 10.9776 13.7903L11.1 13.7987H18.9L19.0224 13.7903C19.2378 13.7606 19.4352 13.654 19.5781 13.4902C19.721 13.3263 19.7997 13.1162 19.7997 12.8988C19.7997 12.6814 19.721 12.4713 19.5781 12.3074C19.4352 12.1435 19.2378 12.0369 19.0224 12.0073L18.9 11.9989Z" fill="#C6C6C6"/>
</svg>
