<svg width="24" height="24" viewBox="0 0 24 24" fill="none" xmlns="http://www.w3.org/2000/svg">
    <g clip-path="url(#clip0_22622_478)">
        <path d="M12 0C18.6276 0 24 5.37174 24 11.9985C24 18.6253 18.6276 23.9971 12 23.9971C11.8412 23.9973 11.6827 23.9943 11.5244 23.9882C8.10409 23.8566 4.59161 23.1047 1.27921 23.9671C1.1072 24.0119 0.926463 24.0109 0.754919 23.9644C0.583375 23.9178 0.426978 23.8272 0.301228 23.7016C0.175479 23.576 0.0847416 23.4197 0.0380104 23.2483C-0.00872075 23.0768 -0.00982368 22.8961 0.0348109 22.724C0.896442 19.413 0.143478 15.9023 0.00920627 12.4837C0.00286509 12.3222 -0.000207914 12.1605 1.09106e-05 11.9985C1.09106e-05 5.37174 5.37241 0 12 0ZM13.5024 13.1984H8.10001L7.97761 13.2068C7.76219 13.2364 7.56479 13.343 7.4219 13.5069C7.27901 13.6708 7.20028 13.8809 7.20028 14.0983C7.20028 14.3157 7.27901 14.5258 7.4219 14.6896C7.56479 14.8535 7.76219 14.9601 7.97761 14.9898L8.10001 14.9982H13.5024L13.6236 14.9898C13.839 14.9601 14.0364 14.8535 14.1793 14.6896C14.3222 14.5258 14.4009 14.3157 14.4009 14.0983C14.4009 13.8809 14.3222 13.6708 14.1793 13.5069C14.0364 13.343 13.839 13.2364 13.6236 13.2068L13.5024 13.1984ZM15.9 8.9989H8.10001L7.97761 9.0073C7.76219 9.03694 7.56479 9.14355 7.4219 9.30743C7.27901 9.47131 7.20028 9.68137 7.20028 9.89879C7.20028 10.1162 7.27901 10.3263 7.4219 10.4902C7.56479 10.654 7.76219 10.7606 7.97761 10.7903L8.10001 10.7987H15.9L16.0224 10.7903C16.2378 10.7606 16.4352 10.654 16.5781 10.4902C16.721 10.3263 16.7997 10.1162 16.7997 9.89879C16.7997 9.68137 16.721 9.47131 16.5781 9.30743C16.4352 9.14355 16.2378 9.03694 16.0224 9.0073L15.9 8.9989Z" fill="#305CDE"/>
    </g>
    <defs>
        <clipPath id="clip0_22622_478">
            <rect width="24" height="24" fill="white"/>
        </clipPath>
    </defs>
</svg>
