<svg width="30" height="30" viewBox="0 0 30 30" fill="none" xmlns="http://www.w3.org/2000/svg">
    <path d="M29.2308 24.3392L5.71975 0.828119C4.69437 -0.197264 3.03193 -0.197264 2.00811 0.828119L0.769037 2.06531C-0.256346 3.09102 -0.256346 4.75345 0.769037 5.77719L24.2801 29.2883C25.3058 30.3137 26.9682 30.3137 27.992 29.2883L29.2292 28.0511C30.2565 27.0274 30.2565 25.3646 29.2308 24.3392Z" fill="#F44336"/>
    <path d="M24.2801 0.828362L0.769037 24.3395C-0.256346 25.3649 -0.256346 27.0276 0.769037 28.0514L2.00622 29.2886C3.03193 30.3139 4.69437 30.3139 5.71811 29.2886L29.2308 5.77908C30.2565 4.75369 30.2565 3.09126 29.2308 2.06752L27.9936 0.83033C26.9682 -0.197021 25.3058 -0.197021 24.2801 0.828362Z" fill="#F44336"/>
</svg>
