<svg width="36" height="36" viewBox="0 0 36 36" fill="none" xmlns="http://www.w3.org/2000/svg">
    <g clip-path="url(#clip0_22257_4242)">
        <path d="M36 18C36 18.7875 36 19.4625 35.8875 20.25L35.55 22.275C34.65 26.1 32.5125 29.3625 29.5875 31.8375C29.475 31.95 29.25 32.0625 29.1375 32.175C28.125 32.9625 27 33.6375 25.7625 34.2L25.0875 34.5375C24.075 34.9875 23.175 35.325 22.05 35.55C21.4875 35.6625 21.0375 35.775 20.475 35.8875C19.575 36 18.7875 36 18 36C8.1 36 0 27.9 0 18C0 8.1 8.1 0 18 0C27.9 0 36 8.1 36 18Z" fill="#EF4639"/>
        <path d="M35.8875 20.2504L35.55 22.2754C34.65 26.1004 32.5125 29.3629 29.5875 31.8379C29.475 31.9504 29.25 32.0629 29.1375 32.1754C28.125 32.9629 27 33.6379 25.7625 34.2004L25.0875 34.5379C24.075 34.9879 23.175 35.3254 22.05 35.5504C21.4875 35.6629 21.0375 35.7754 20.475 35.8879L10.35 25.7629C9.675 25.0879 9.675 23.9629 10.35 23.1754L15.525 18.0004L10.35 12.8254C9.675 12.1504 9.675 11.0254 10.35 10.2379C11.025 9.56289 12.15 9.56289 12.9375 10.2379L13.1625 10.4629L13.6125 10.9129L15.075 12.3754L15.525 12.8254L16.9875 14.2879L17.4375 14.7379L18.225 15.5254L23.175 10.1254C23.85 9.45039 24.975 9.45039 25.7625 10.1254L35.8875 20.2504Z" fill="#E2382F"/>
        <path d="M25.7625 23.0629C26.4375 23.7379 26.4375 24.8629 25.7625 25.6504C25.425 25.9879 24.975 26.2129 24.525 26.2129C24.075 26.2129 23.625 25.9879 23.2875 25.6504L18 20.4754L12.825 25.6504C12.4875 25.9879 12.0375 26.2129 11.5875 26.2129C11.1375 26.2129 10.6875 25.9879 10.35 25.6504C9.675 24.9754 9.675 23.8504 10.35 23.0629L15.525 17.8879L10.35 12.7129C9.675 12.0379 9.675 10.9129 10.35 10.1254C11.025 9.45039 12.15 9.45039 12.9375 10.1254L18.1125 15.3004L23.175 10.1254C23.85 9.45039 24.975 9.45039 25.7625 10.1254C26.4375 10.8004 26.4375 11.9254 25.7625 12.7129L20.5875 17.8879L25.7625 23.0629Z" fill="white"/>
    </g>
    <defs>
        <clipPath id="clip0_22257_4242">
            <rect width="36" height="36" fill="white"/>
        </clipPath>
    </defs>
</svg>
