<svg width="34" height="34" viewBox="0 0 34 34" fill="none" xmlns="http://www.w3.org/2000/svg">
    <path d="M17 33.0312C25.8538 33.0312 33.0312 25.8538 33.0312 17C33.0312 8.14619 25.8538 0.96875 17 0.96875C8.14619 0.96875 0.96875 8.14619 0.96875 17C0.96875 25.8538 8.14619 33.0312 17 33.0312Z" fill="#FEDA2C"/>
    <path d="M17 29.3579C23.8252 29.3579 29.3581 23.8249 29.3581 16.9997C29.3581 10.1745 23.8252 4.6416 17 4.6416C10.1748 4.6416 4.64185 10.1745 4.64185 16.9997C4.64185 23.8249 10.1748 29.3579 17 29.3579Z" fill="#FCAA17"/>
    <path d="M17.0001 7.50293L19.8106 13.1977L26.0949 14.1109L21.5476 18.5437L22.6212 24.8026L17.0001 21.8475L11.379 24.8026L12.4526 18.5437L7.90503 14.1109L14.1896 13.1977L17.0001 7.50293Z" fill="#FEDA2C"/>
</svg>
