<svg width="21" height="21" viewBox="0 0 21 21" fill="none" xmlns="http://www.w3.org/2000/svg">
    <path fill-rule="evenodd" clip-rule="evenodd" d="M16.0413 16.6311C13.4945 19.1782 9.72333 19.7285 6.6372 18.3013C6.18161 18.1178 5.80809 17.9696 5.453 17.9696C4.46393 17.9754 3.23282 18.9345 2.59299 18.2954C1.95315 17.6555 2.9129 16.4234 2.9129 15.4284C2.9129 15.0732 2.77053 14.7064 2.58712 14.2499C1.15921 11.1643 1.71028 7.39182 4.25707 4.84559C7.50818 1.59328 12.7902 1.59328 16.0413 4.84475C19.2983 8.10209 19.2924 13.3797 16.0413 16.6311Z" stroke="#1E1E1E" stroke-width="1.29254" stroke-linecap="round" stroke-linejoin="round"/>
    <path d="M13.4313 11.0841H13.4388" stroke="#1E1E1E" stroke-width="1.72338" stroke-linecap="round" stroke-linejoin="round"/>
    <path d="M10.0905 11.0841H10.098" stroke="#1E1E1E" stroke-width="1.72338" stroke-linecap="round" stroke-linejoin="round"/>
    <path d="M6.74965 11.0841H6.75715" stroke="#1E1E1E" stroke-width="1.72338" stroke-linecap="round" stroke-linejoin="round"/>
</svg>
