<svg width="25" height="24" viewBox="0 0 25 24" fill="none" xmlns="http://www.w3.org/2000/svg">
    <path d="M4.57612 8H20.4239M16.5 5V3M8.5 5V3M16.502 16.002L16.5 16.002V16M12.502 16H12.5V16.002M8.502 16L8.50195 16.002L8.5 16.002M16.502 12.002L16.5 12.002V12M8.502 12H8.5V12.002M12.5 12V12.002M10.5 21H14.5C17.3284 21 18.7426 21 19.6213 20.1213C20.5 19.2426 20.5 17.8284 20.5 15V11C20.5 8.17157 20.5 6.75736 19.6213 5.87868C18.7426 5 17.3284 5 14.5 5H10.5C7.67157 5 6.25736 5 5.37868 5.87868C4.5 6.75736 4.5 8.17157 4.5 11V15C4.5 17.8284 4.5 19.2426 5.37868 20.1213C6.25736 21 7.67157 21 10.5 21Z" stroke="#305CDE" stroke-width="2" stroke-linecap="round" stroke-linejoin="round"/>
</svg>
