<svg width="25" height="24" viewBox="0 0 25 24" fill="none" xmlns="http://www.w3.org/2000/svg">
    <path d="M12.4945 6.54546C13.7 6.54546 14.6764 5.56911 14.6764 4.36362C14.6764 3.95453 14.5618 3.56728 14.3655 3.24L12.4945 0L10.6236 3.24C10.4202 3.57948 10.3127 3.96784 10.3127 4.36362C10.3127 5.56911 11.2891 6.54546 12.4945 6.54546ZM19.04 9.81819H13.5854V7.63635H11.4036V9.81819H5.94909C4.14362 9.81819 2.67636 11.2854 2.67636 13.0909V14.7709C2.67636 15.9491 3.63634 16.9091 4.81453 16.9091C5.38725 16.9091 5.92178 16.6854 6.32545 16.2818L8.65998 13.9527L10.9891 16.2763C11.7964 17.0836 13.2037 17.0836 14.0109 16.2763L16.3454 13.9527L18.6745 16.2763C19.0782 16.6799 19.6127 16.9036 20.1855 16.9036C21.3636 16.9036 22.3236 15.9436 22.3236 14.7654V13.0909C22.3127 11.2854 20.8455 9.81819 19.04 9.81819Z" fill="#E20070"/>
    <path d="M17.5073 17.4382L16.3346 16.2655L15.1564 17.4382C13.7328 18.8618 11.2455 18.8618 9.82186 17.4382L8.64909 16.2655L7.47091 17.4382C6.76727 18.1527 5.82365 18.5454 4.81453 18.5454C4.0236 18.5454 3.28724 18.2945 2.67636 17.8745V22.9091C2.67636 23.5091 3.16727 24 3.76725 24H21.2218C21.8218 24 22.3127 23.5091 22.3127 22.9091V17.8746C21.7018 18.2946 20.9709 18.5455 20.1745 18.5455C19.1654 18.5455 18.2218 18.1528 17.5073 17.4382Z" fill="#E20070"/>
</svg>
