<svg width="20" height="22" viewBox="0 0 20 22" fill="none" xmlns="http://www.w3.org/2000/svg">
    <path d="M18.14 7.75L17.37 19.18C17.3236 19.8757 17.015 20.528 16.5065 21.005C15.9979 21.482 15.3273 21.7483 14.63 21.75H5.36999C4.67272 21.7483 4.00209 21.482 3.49352 21.005C2.98495 20.528 2.67633 19.8757 2.62999 19.18L1.85999 7.75H18.14ZM13.112 4.75H6.88799C6.61075 4.74989 6.3375 4.68395 6.09073 4.5576C5.84396 4.43126 5.63071 4.24813 5.46853 4.02327C5.30636 3.79842 5.1999 3.53827 5.1579 3.26423C5.11591 2.99019 5.13959 2.7101 5.22699 2.447L5.56199 1.446C5.67746 1.09761 5.89984 0.794501 6.1975 0.57978C6.49517 0.365059 6.85296 0.249662 7.21999 0.250001H12.778C13.1454 0.249615 13.5036 0.365081 13.8016 0.579978C14.0996 0.794876 14.3223 1.09826 14.438 1.447L14.771 2.446C14.8588 2.70908 14.8828 2.98926 14.841 3.26345C14.7993 3.53763 14.693 3.79797 14.5308 4.02299C14.3687 4.24801 14.1554 4.43128 13.9086 4.55768C13.6617 4.68408 13.3883 4.75 13.111 4.75H13.112ZM7.22099 1.75C7.16859 1.74967 7.11743 1.76594 7.07485 1.79648C7.03228 1.82702 7.00046 1.87026 6.98399 1.92L6.64999 2.921C6.63742 2.95872 6.63403 2.9989 6.64011 3.0382C6.64618 3.07749 6.66154 3.11477 6.68491 3.14694C6.70828 3.17911 6.73898 3.20524 6.77448 3.22317C6.80997 3.24109 6.84923 3.25029 6.88899 3.25H13.113C13.1528 3.25018 13.192 3.24086 13.2275 3.22282C13.263 3.20477 13.2936 3.17852 13.3169 3.14624C13.3402 3.11397 13.3554 3.0766 13.3613 3.03725C13.3673 2.9979 13.3637 2.9577 13.351 2.92L13.018 1.921C13.0014 1.87108 12.9694 1.82767 12.9267 1.79697C12.8839 1.76627 12.8326 1.74983 12.78 1.75H7.22099Z" fill="#E63946"/>
    <path d="M8 15.75C7.80109 15.75 7.61032 15.671 7.46967 15.5303C7.32902 15.3897 7.25 15.1989 7.25 15V11C7.25 10.8011 7.32902 10.6103 7.46967 10.4697C7.61032 10.329 7.80109 10.25 8 10.25C8.19891 10.25 8.38968 10.329 8.53033 10.4697C8.67098 10.6103 8.75 10.8011 8.75 11V15C8.75 15.1989 8.67098 15.3897 8.53033 15.5303C8.38968 15.671 8.19891 15.75 8 15.75ZM12 15.75C11.8011 15.75 11.6103 15.671 11.4697 15.5303C11.329 15.3897 11.25 15.1989 11.25 15V11C11.25 10.8011 11.329 10.6103 11.4697 10.4697C11.6103 10.329 11.8011 10.25 12 10.25C12.1989 10.25 12.3897 10.329 12.5303 10.4697C12.671 10.6103 12.75 10.8011 12.75 11V15C12.75 15.1989 12.671 15.3897 12.5303 15.5303C12.3897 15.671 12.1989 15.75 12 15.75Z" fill="#EDEBEA"/>
    <path d="M18 3.25H2C1.53587 3.25 1.09075 3.43437 0.762563 3.76256C0.434375 4.09075 0.25 4.53587 0.25 5C0.25 5.46413 0.434375 5.90925 0.762563 6.23744C1.09075 6.56563 1.53587 6.75 2 6.75H18C18.4641 6.75 18.9092 6.56563 19.2374 6.23744C19.5656 5.90925 19.75 5.46413 19.75 5C19.75 4.53587 19.5656 4.09075 19.2374 3.76256C18.9092 3.43437 18.4641 3.25 18 3.25Z" fill="#E63946"/>
</svg>
