<svg width="21" height="20" viewBox="0 0 21 20" fill="none" xmlns="http://www.w3.org/2000/svg">
    <g clip-path="url(#clip0_17032_1175)">
        <path d="M12.1714 12.2537C11.6739 12.5854 11.0959 12.7607 10.5 12.7607C9.90414 12.7607 9.32617 12.5854 8.82859 12.2537L0.633164 6.78989C0.587922 6.75964 0.543517 6.72816 0.5 6.69547L0.5 15.6485C0.5 16.675 1.33301 17.4896 2.34113 17.4896H18.6588C19.6853 17.4896 20.5 16.6566 20.5 15.6485V6.69543C20.4564 6.7282 20.4119 6.75975 20.3665 6.79004L12.1714 12.2537Z" fill="#E20070"/>
        <path d="M1.2832 5.81475L9.47863 11.2786C9.78887 11.4854 10.1444 11.5888 10.5 11.5888C10.8555 11.5888 11.2111 11.4854 11.5214 11.2786L19.7168 5.81475C20.2072 5.48799 20.5 4.94112 20.5 4.35088C20.5 3.336 19.6743 2.51038 18.6595 2.51038H2.34051C1.32567 2.51042 0.500001 3.33604 0.500001 4.35186C0.499697 4.64139 0.571056 4.9265 0.707714 5.18176C0.844372 5.43701 1.04208 5.65447 1.2832 5.81475Z" fill="#E20070"/>
    </g>
    <defs>
        <clipPath id="clip0_17032_1175">
            <rect width="20" height="20" fill="white" transform="translate(0.5)"/>
        </clipPath>
    </defs>
</svg>
