<svg width="21" height="20" viewBox="0 0 21 20" fill="none" xmlns="http://www.w3.org/2000/svg">
    <g clip-path="url(#clip0_17005_1103)">
        <path d="M16.776 7.69094V4.9375H19.2864C19.4023 4.9375 19.5156 4.90314 19.6119 4.83875C19.7083 4.77436 19.7834 4.68285 19.8278 4.57578C19.8721 4.46871 19.8837 4.3509 19.8611 4.23724C19.8385 4.12358 19.7827 4.01917 19.7007 3.93723L15.9351 0.171606C15.7063 -0.0572223 15.3353 -0.0572223 15.1065 0.171606L11.3408 3.93723C11.2589 4.01919 11.2031 4.12359 11.1806 4.23724C11.158 4.35089 11.1696 4.46868 11.2139 4.57573C11.2583 4.68279 11.3333 4.77429 11.4297 4.83868C11.526 4.90308 11.6393 4.93747 11.7551 4.9375H14.2656V7.69094C8.69302 9.24946 9.66693 17.362 15.5209 17.4896C21.3759 17.3614 22.3477 9.24844 16.776 7.69094ZM15.5208 14.9792C14.1574 14.9792 13.0521 13.8739 13.0521 12.5104C13.1731 9.23922 17.869 9.24008 17.9896 12.5105C17.9896 13.8739 16.8843 14.9792 15.5208 14.9792Z" fill="#E20070"/>
        <path d="M10.4583 8.1172C10.4583 5.36727 8.22907 3.13802 5.47915 3.13802C-0.376319 3.26614 -1.3473 11.3795 4.22395 12.9366V14.3933H1.71352C1.38993 14.3933 1.12759 14.6556 1.12759 14.9792V16.3177C1.12759 16.6413 1.38993 16.9037 1.71352 16.9037H4.22395V19.4141C4.22395 19.7377 4.4863 20 4.80989 20H6.14845C6.47204 20 6.73438 19.7377 6.73438 19.4141V16.9036H9.24481C9.56841 16.9036 9.83075 16.6413 9.83075 16.3177V14.9791C9.83075 14.6556 9.56841 14.3932 9.24481 14.3932H6.73438V12.9366C8.87661 12.3803 10.4583 10.4335 10.4583 8.1172ZM5.47915 10.5859C4.11571 10.5859 3.0104 9.48063 3.0104 8.1172C3.13142 4.84598 7.82735 4.84684 7.9479 8.11723C7.9479 9.48063 6.84259 10.5859 5.47915 10.5859Z" fill="#E20070"/>
    </g>
    <defs>
        <clipPath id="clip0_17005_1103">
            <rect width="20" height="20" fill="white" transform="translate(0.5)"/>
        </clipPath>
    </defs>
</svg>
