<svg width="17" height="17" viewBox="0 0 17 17" fill="none" xmlns="http://www.w3.org/2000/svg">
    <g clip-path="url(#clip0_17184_1078)">
        <path d="M7.67872 9.62422H2.48266C2.07095 9.62422 1.73407 9.96104 1.73407 10.3728V15.9913C1.73407 16.403 2.07095 16.7398 2.48266 16.7398H7.76609C7.9422 16.7398 7.9422 16.5506 7.9422 16.5506V9.87858C7.94214 9.87858 7.94214 9.62422 7.67872 9.62422ZM14.666 9.62422H9.47526C9.15911 9.62422 9.20644 9.95346 9.20644 9.95346V16.5567C9.20644 16.5567 9.20388 16.7396 9.39406 16.7396H14.6659C15.0776 16.7396 15.4145 16.4028 15.4145 15.9911V10.3728C15.4146 9.96104 15.0777 9.62422 14.666 9.62422ZM7.94214 5.20347C7.94214 5.20347 7.94214 4.94981 7.69149 4.94981H1.63732C1.22561 4.94981 0.888733 5.28669 0.888733 5.69835V8.03503C0.888733 8.44674 1.22561 8.78357 1.63732 8.78357H7.71199C7.94214 8.78357 7.94214 8.58396 7.94214 8.58396V5.20347ZM15.5113 4.94981H9.43785C9.20655 4.94981 9.20655 5.1702 9.20655 5.1702V8.58859C9.20655 8.58859 9.20655 8.78357 9.48775 8.78357H15.5113C15.923 8.78357 16.2599 8.44674 16.2599 8.03503V5.69835C16.2599 5.28669 15.923 4.94981 15.5113 4.94981ZM5.39603 4.39598C5.05353 4.39598 4.7407 4.36882 4.46638 4.31521C3.7696 4.17908 3.2907 3.91413 3.0023 3.50532C2.7439 3.13893 2.66482 2.68725 2.76719 2.16275C2.94651 1.2451 3.56279 0.739746 4.50237 0.739746C4.70122 0.739746 4.91959 0.762707 5.15148 0.808028C5.74137 0.923267 6.49585 1.26151 7.16977 1.71281C8.31317 2.47858 8.36972 2.95465 8.31278 3.24615C8.22907 3.67449 7.8287 3.98056 7.08879 4.18192C6.58889 4.31793 5.9719 4.39598 5.39603 4.39598ZM4.50243 1.93953C4.13855 1.93953 4.01349 2.04119 3.94483 2.3928C3.88865 2.68027 3.9595 2.78067 3.98273 2.81367C4.08003 2.95165 4.33347 3.06672 4.69642 3.13757C4.89226 3.17585 5.13425 3.19609 5.39598 3.19609C5.97152 3.19609 6.47856 3.10888 6.815 3.01349C6.83949 3.00657 6.8775 2.97761 6.83677 2.95334C6.39692 2.59502 5.59221 2.11656 4.92144 1.9855C4.76519 1.95507 4.62416 1.93953 4.50243 1.93953ZM11.77 4.39598H11.7698C11.194 4.39598 10.577 4.31793 10.0771 4.18192C9.33717 3.98062 8.93686 3.67449 8.85315 3.24621C8.79626 2.9547 8.85271 2.47864 9.99621 1.71287C10.67 1.26157 11.4245 0.923321 12.0145 0.808082C12.2464 0.762761 12.4648 0.739801 12.6634 0.739801C13.6032 0.739801 14.2195 1.2452 14.3986 2.16286C14.5011 2.6873 14.4221 3.13899 14.1636 3.50537C13.8752 3.91424 13.3964 4.17914 12.6994 4.31526C12.4252 4.36876 12.1124 4.39598 11.77 4.39598ZM10.3388 2.94592C10.2998 2.96855 10.3186 3.00428 10.3389 3.01011C10.6752 3.10681 11.1875 3.19614 11.7698 3.19614C12.0317 3.19614 12.2736 3.17591 12.4695 3.13762C12.8324 3.06672 13.0859 2.9517 13.1831 2.81372C13.2065 2.78072 13.2774 2.68032 13.221 2.39285C13.1524 2.04124 13.0273 1.93958 12.6634 1.93958C12.5417 1.93958 12.4008 1.95507 12.2444 1.98561C11.5736 2.11661 10.7786 2.58755 10.3388 2.94592Z" fill="#E20070"/>
    </g>
    <defs>
        <clipPath id="clip0_17184_1078">
            <rect width="16" height="16" fill="white" transform="translate(0.574341 0.739746)"/>
        </clipPath>
    </defs>
</svg>
