<svg width="16" height="17" viewBox="0 0 16 17" fill="none" xmlns="http://www.w3.org/2000/svg">
    <path d="M8.00047 1.00003C6.01165 1.00103 4.10457 1.79147 2.69817 3.19769C1.29178 4.6039 0.501103 6.51089 0.499851 8.49971C0.500853 10.4887 1.29142 12.3959 2.69784 13.8023C4.10426 15.2088 6.01149 15.9993 8.00047 16.0003C9.26529 15.999 10.5093 15.678 11.6168 15.0672C12.7243 14.4563 13.6595 13.5754 14.3355 12.5064C15.0114 11.4373 15.4062 10.2148 15.4831 8.95229C15.56 7.68981 15.3166 6.42836 14.7754 5.28516L14.0318 6.02879C13.9621 6.09901 13.8792 6.15477 13.7879 6.19288C13.6966 6.23099 13.5987 6.25068 13.4998 6.25084H13.2919C13.5877 6.94157 13.7511 7.70221 13.7511 8.49971C13.7501 10.0246 13.1439 11.4867 12.0657 12.5649C10.9875 13.6432 9.52534 14.2494 8.00047 14.2504C4.8275 14.2504 2.24981 11.6727 2.24981 8.49971C2.25089 7.54991 2.48706 6.61515 2.93724 5.77882C3.38741 4.94249 4.03761 4.23059 4.82981 3.70664C5.62201 3.18268 6.53158 2.86297 7.47739 2.77601C8.42319 2.68905 9.37582 2.83755 10.2503 3.20827V3.00039C10.2503 2.80101 10.3297 2.6092 10.4714 2.46841L11.216 1.72383C10.2114 1.24632 9.11277 0.998406 8.00047 1.00003ZM12.7439 1.00003C12.6798 1.00194 12.619 1.02831 12.5738 1.07373L10.8238 2.82275C10.8004 2.84604 10.7819 2.87372 10.7692 2.90421C10.7566 2.93469 10.7501 2.96738 10.7501 3.00039V4.64735L7.44865 7.94883C7.30324 8.09568 7.22167 8.29399 7.22167 8.50065C7.22167 8.70731 7.30324 8.90562 7.44865 9.05247C7.75102 9.35484 8.24898 9.3539 8.55135 9.05058L11.8519 5.75005H13.4998C13.5328 5.75008 13.5655 5.74358 13.596 5.73093C13.6265 5.71828 13.6541 5.69973 13.6774 5.67635L15.4264 3.92639C15.4607 3.89128 15.4839 3.84689 15.4931 3.79874C15.5023 3.75058 15.4972 3.70076 15.4784 3.65548C15.4596 3.6102 15.4279 3.57144 15.3872 3.54401C15.3466 3.51658 15.2988 3.50169 15.2497 3.50118H14.1017L14.3011 3.30087C14.4464 3.15446 14.5281 2.95665 14.5284 2.75038C14.5288 2.5441 14.4478 2.34601 14.303 2.19911C14.1518 2.04793 13.9505 1.97234 13.7502 1.97234C13.5499 1.97234 13.3496 2.04793 13.1984 2.19911L12.9999 2.39754V1.24854C12.9998 1.21526 12.9931 1.18233 12.9801 1.15168C12.9671 1.12104 12.9481 1.09329 12.9243 1.07006C12.9004 1.04684 12.8722 1.0286 12.8412 1.01641C12.8102 1.00422 12.7771 0.999279 12.7439 1.00003ZM8.00047 4.499C5.79413 4.499 3.99882 6.29431 3.99882 8.49971C3.99882 10.7051 5.79413 12.4995 8.00047 12.4995C9.06088 12.4985 10.0776 12.0767 10.8273 11.3268C11.577 10.5769 11.9985 9.56012 11.9993 8.49971C11.9993 7.86379 11.8462 7.26283 11.5816 6.72802L10.2115 8.09813C10.2698 8.42201 10.2564 8.75473 10.1722 9.07287C10.0881 9.39102 9.93526 9.68686 9.72449 9.93959C9.51373 10.1923 9.25015 10.3958 8.9523 10.5357C8.65445 10.6757 8.32955 10.7486 8.00047 10.7495C7.40418 10.7488 6.83251 10.5116 6.41078 10.0901C5.98905 9.66851 5.75166 9.09694 5.75066 8.50065C5.75141 7.90436 5.98856 7.33269 6.41011 6.91096C6.83167 6.48923 7.40323 6.25184 7.99953 6.25084C8.13748 6.25084 8.27166 6.26502 8.40205 6.28864L9.77216 4.91853C9.22209 4.64328 8.61557 4.49966 8.00047 4.499Z" fill="#E20070"/>
</svg>
