<svg width="21" height="20" viewBox="0 0 21 20" fill="none" xmlns="http://www.w3.org/2000/svg">
    <path d="M10.5 1V3H14.5V5H10.5V7H12.5V9H10.5V11H14.5V13H10.5V15H12.5V17H10.5V19C10.5 19.2652 10.6054 19.5196 10.7929 19.7071C10.9804 19.8946 11.2348 20 11.5 20H17.5C17.7652 20 18.0196 19.8946 18.2071 19.7071C18.3946 19.5196 18.5 19.2652 18.5 19V1C18.5 0.734784 18.3946 0.48043 18.2071 0.292893C18.0196 0.105357 17.7652 0 17.5 0L11.5 0C11.2348 0 10.9804 0.105357 10.7929 0.292893C10.6054 0.48043 10.5 0.734784 10.5 1ZM2.5 4L5.5 0.586L8.5 4H6.5V20H4.5V4H2.5Z" fill="#E20070"/>
</svg>
