<svg width="30" height="30" viewBox="0 0 30 30" fill="none" xmlns="http://www.w3.org/2000/svg">
    <path fill-rule="evenodd" clip-rule="evenodd" d="M3.15 9.77875C2.5 10.9625 2.5 12.3938 2.5 15.2538V17.1563C2.5 22.0313 2.5 24.47 3.965 25.985C5.42875 27.5 7.78625 27.5 12.5 27.5H17.5C22.2138 27.5 24.5713 27.5 26.035 25.985C27.5 24.47 27.5 22.0325 27.5 17.1563V15.255C27.5 12.3938 27.5 10.9638 26.85 9.77875C26.2025 8.5925 25.0163 7.8575 22.645 6.385L20.145 4.83375C17.6388 3.2775 16.385 2.5 15 2.5C13.615 2.5 12.3625 3.2775 9.855 4.83375L7.355 6.385C4.98375 7.8575 3.79875 8.5925 3.15 9.77875ZM14.0625 22.5C14.0625 22.7486 14.1613 22.9871 14.3371 23.1629C14.5129 23.3387 14.7514 23.4375 15 23.4375C15.2486 23.4375 15.4871 23.3387 15.6629 23.1629C15.8387 22.9871 15.9375 22.7486 15.9375 22.5V18.75C15.9375 18.5014 15.8387 18.2629 15.6629 18.0871C15.4871 17.9113 15.2486 17.8125 15 17.8125C14.7514 17.8125 14.5129 17.9113 14.3371 18.0871C14.1613 18.2629 14.0625 18.5014 14.0625 18.75V22.5Z" fill="#C6C6C6"/>
</svg>
