<svg width="23" height="24" viewBox="0 0 23 24" fill="none" xmlns="http://www.w3.org/2000/svg">
    <path d="M11.5001 0.491821C14.4713 0.495407 17.3201 1.69237 19.421 3.81995C21.5218 5.94753 22.7036 8.83266 22.7072 11.8414C22.7071 14.0858 22.0497 16.2799 20.8185 18.1461C19.5871 20.0125 17.836 21.4668 15.7882 22.3258C13.7405 23.1847 11.4874 23.4102 9.3136 22.9723C7.13967 22.5344 5.14263 21.4531 3.57532 19.8658C2.00818 18.2787 0.94135 16.2566 0.508911 14.0553C0.0764907 11.8538 0.298383 9.57147 1.14661 7.49768C1.99479 5.42415 3.43084 3.6519 5.27356 2.40491C7.11652 1.15785 9.28361 0.491821 11.5001 0.491821ZM11.5001 5.651C11.2299 5.651 10.9705 5.75927 10.7794 5.95276C10.5884 6.14623 10.4816 6.40867 10.4816 6.68225V10.8092H6.40637C6.13631 10.8092 5.8767 10.9177 5.68567 11.111C5.49461 11.3045 5.38684 11.5678 5.38684 11.8414C5.38696 12.1149 5.49471 12.3775 5.68567 12.5709C5.87671 12.7642 6.13629 12.8727 6.40637 12.8727H10.4816V16.9996C10.4816 17.2732 10.5884 17.5357 10.7794 17.7291C10.9705 17.9226 11.2299 18.0319 11.5001 18.0319C11.7703 18.0318 12.0298 17.9226 12.2208 17.7291C12.4117 17.5357 12.5187 17.2731 12.5187 16.9996V12.8727H16.5939C16.864 12.8727 17.1235 12.7643 17.3146 12.5709C17.5055 12.3775 17.6123 12.1149 17.6124 11.8414C17.6124 11.5678 17.5056 11.3045 17.3146 11.111C17.1235 10.9176 16.864 10.8092 16.5939 10.8092H12.5187V6.68225C12.5187 6.40873 12.4117 6.14622 12.2208 5.95276C12.0298 5.7593 11.7703 5.65104 11.5001 5.651Z" fill="#E20070"/>
    <path d="M11.5001 0.491821C14.4713 0.495407 17.3201 1.69237 19.421 3.81995C21.5218 5.94753 22.7036 8.83266 22.7072 11.8414C22.7071 14.0858 22.0497 16.2799 20.8185 18.1461C19.5871 20.0125 17.836 21.4668 15.7882 22.3258C13.7405 23.1847 11.4874 23.4102 9.3136 22.9723C7.13967 22.5344 5.14263 21.4531 3.57532 19.8658C2.00818 18.2787 0.94135 16.2566 0.508911 14.0553C0.0764907 11.8538 0.298383 9.57147 1.14661 7.49768C1.99479 5.42415 3.43084 3.6519 5.27356 2.40491C7.11652 1.15785 9.28361 0.491821 11.5001 0.491821ZM11.5001 5.651C11.2299 5.651 10.9705 5.75927 10.7794 5.95276C10.5884 6.14623 10.4816 6.40867 10.4816 6.68225V10.8092H6.40637C6.13631 10.8092 5.8767 10.9177 5.68567 11.111C5.49461 11.3045 5.38684 11.5678 5.38684 11.8414C5.38696 12.1149 5.49471 12.3775 5.68567 12.5709C5.87671 12.7642 6.13629 12.8727 6.40637 12.8727H10.4816V16.9996C10.4816 17.2732 10.5884 17.5357 10.7794 17.7291C10.9705 17.9226 11.2299 18.0319 11.5001 18.0319C11.7703 18.0318 12.0298 17.9226 12.2208 17.7291C12.4117 17.5357 12.5187 17.2731 12.5187 16.9996V12.8727H16.5939C16.864 12.8727 17.1235 12.7643 17.3146 12.5709C17.5055 12.3775 17.6123 12.1149 17.6124 11.8414C17.6124 11.5678 17.5056 11.3045 17.3146 11.111C17.1235 10.9176 16.864 10.8092 16.5939 10.8092H12.5187V6.68225C12.5187 6.40873 12.4117 6.14622 12.2208 5.95276C12.0298 5.7593 11.7703 5.65104 11.5001 5.651Z" stroke="#E20070"/>
</svg>
