<svg width="24" height="24" viewBox="0 0 24 24" fill="none" xmlns="http://www.w3.org/2000/svg">
    <g clip-path="url(#clip0_17024_708)">
        <path d="M12 23.5999C18.4065 23.5999 23.6 18.4064 23.6 11.9999C23.6 5.59343 18.4065 0.399933 12 0.399933C5.59352 0.399933 0.400024 5.59343 0.400024 11.9999C0.400024 18.4064 5.59352 23.5999 12 23.5999Z" fill="#F74850"/>
        <path d="M13.6873 11.9999L16.6365 14.9491C16.741 15.0541 16.7997 15.1962 16.7997 15.3443C16.7997 15.4925 16.741 15.6346 16.6365 15.7395L15.7397 16.6363C15.6347 16.7409 15.4926 16.7996 15.3445 16.7996C15.1963 16.7996 15.0542 16.7409 14.9493 16.6363L12.0001 13.6871L9.05088 16.6363C8.94593 16.7409 8.80382 16.7996 8.65568 16.7996C8.50754 16.7996 8.36544 16.7409 8.26048 16.6363L7.36368 15.7395C7.25914 15.6346 7.20044 15.4925 7.20044 15.3443C7.20044 15.1962 7.25914 15.0541 7.36368 14.9491L10.3129 11.9999L7.36368 9.05073C7.25914 8.94577 7.20044 8.80367 7.20044 8.65553C7.20044 8.50739 7.25914 8.36529 7.36368 8.26033L8.26048 7.36353C8.36544 7.25899 8.50754 7.20029 8.65568 7.20029C8.80382 7.20029 8.94593 7.25899 9.05088 7.36353L12.0001 10.3127L14.9493 7.36353C15.0542 7.25899 15.1963 7.20029 15.3445 7.20029C15.4926 7.20029 15.6347 7.25899 15.7397 7.36353L16.6365 8.26033C16.741 8.36529 16.7997 8.50739 16.7997 8.65553C16.7997 8.80367 16.741 8.94577 16.6365 9.05073L13.6873 11.9999Z" fill="white"/>
    </g>
    <defs>
        <clipPath id="clip0_17024_708">
            <rect width="24" height="24" fill="white"/>
        </clipPath>
    </defs>
</svg>
