<svg width="21" height="21" viewBox="0 0 21 21" fill="none" xmlns="http://www.w3.org/2000/svg">
    <path d="M19.177 9.46857C18.6311 8.81057 17.7762 8.40182 16.9461 8.40182H14.75C15.2442 7.61424 15.6162 6.8217 15.8428 6.06701C16.1887 4.91537 16.1766 3.91146 15.8078 3.16381C15.3924 2.3217 14.5505 1.85791 13.4374 1.85791C13.3136 1.85791 13.1926 1.89468 13.0897 1.96354C12.9868 2.0324 12.9067 2.13026 12.8596 2.24471C11.9928 4.34693 9.73214 7.36842 7.60218 9.35885C7.38484 8.60389 6.68832 8.04982 5.86437 8.04982H3.18859C2.19136 8.04982 1.38004 8.86115 1.38004 9.85834V17.8133C1.38004 18.8105 2.19136 19.6218 3.18859 19.6218H5.86437C6.47441 19.6218 7.01449 19.3179 7.34222 18.8538C7.838 19.3308 8.49527 19.6218 9.21547 19.6218H15.953C16.6978 19.6218 17.3611 19.3047 17.8712 18.7047C18.2917 18.21 18.5903 17.5418 18.7348 16.7722L19.7278 11.4821C19.8611 10.7723 19.6655 10.0572 19.177 9.46857ZM6.42289 17.8133C6.42289 18.1213 6.17234 18.3719 5.86437 18.3719H3.18859C2.88062 18.3719 2.63004 18.1213 2.63004 17.8133V9.85838C2.63004 9.55041 2.88062 9.29986 3.18859 9.29986H5.86437C6.17234 9.29986 6.42289 9.55041 6.42289 9.85838V17.8133ZM18.4993 11.2515L17.5062 16.5416C17.3402 17.4264 16.8449 18.3719 15.953 18.3719H9.21543C8.36488 18.3719 7.67293 17.6026 7.67293 16.6569V10.9639C10.0288 9.00814 12.6672 5.6492 13.832 3.13865C14.4534 3.24381 14.6241 3.58979 14.6868 3.71682C15.0925 4.53912 14.7558 6.43252 13.058 8.64646C12.9871 8.73902 12.9434 8.84959 12.932 8.96568C12.9206 9.08176 12.9419 9.19872 12.9935 9.30332C13.0451 9.40793 13.1249 9.496 13.224 9.55758C13.3231 9.61916 13.4374 9.65179 13.554 9.65178H16.9461C17.407 9.65178 17.9052 9.89314 18.2151 10.2667C18.3896 10.4771 18.5806 10.8187 18.4993 11.2515Z" fill="#1E1E1E"/>
</svg>
