<svg width="24" height="24" viewBox="0 0 24 24" fill="none" xmlns="http://www.w3.org/2000/svg">
    <g clip-path="url(#clip0_17024_5472)">
        <path d="M8.56412 3.83906L1.25162 0C0.613233 0.239016 6.10352e-05 1.02234 6.10352e-05 1.92656V18.3187C6.10352e-05 19.0359 0.351624 19.6828 0.942202 20.0765L6.5672 23.6453C7.91209 24.5596 9.84381 23.6116 9.84381 21.8874V5.79375C9.84381 4.96402 9.3797 4.24683 8.56412 3.83906ZM7.03131 13.4062C7.03131 13.7949 6.71683 14.1094 6.32819 14.1094C5.93955 14.1094 5.62506 13.7949 5.62506 13.4062V10.5938C5.62506 10.2051 5.93955 9.89062 6.32819 9.89062C6.71683 9.89062 7.03131 10.2051 7.03131 10.5938V13.4062ZM23.722 11.4398L18.7785 7.98862C18.3355 7.54566 17.5782 7.85934 17.5782 8.48573V10.5938H11.9532C11.5649 10.5938 11.2501 10.9085 11.2501 11.2969V12.7031C11.2501 13.0914 11.5649 13.4062 11.9532 13.4062H17.5782V15.5142C17.5782 16.1406 18.3355 16.4543 18.7784 16.0114L23.722 12.56C24.0927 12.2787 24.0927 11.7212 23.722 11.4398Z" fill="#E0001B"/>
        <path d="M11.25 14.8125V21.1875H13.3594C14.5226 21.1875 15.4688 20.2413 15.4688 19.0781V14.8125H11.25ZM13.3594 0H4.27673L9.19022 2.57972L9.19289 2.58108C9.19308 2.58117 9.19312 2.58131 9.19312 2.58131L9.21759 2.59411C10.481 3.22519 11.25 4.42612 11.25 5.79394V9.1875H15.4688V2.10938C15.4687 0.946219 14.5226 0 13.3594 0Z" fill="#E0001B"/>
    </g>
    <defs>
        <clipPath id="clip0_17024_5472">
            <rect width="24" height="24" fill="white"/>
        </clipPath>
    </defs>
</svg>
