<svg width="30" height="30" viewBox="0 0 30 30" fill="none" xmlns="http://www.w3.org/2000/svg">
    <path d="M28 11.1058C28 19.1286 15.9529 25.6224 15.4399 25.8906C15.3047 25.9624 15.1535 26 15 26C14.8465 26 14.6953 25.9624 14.5601 25.8906C14.0471 25.6224 2 19.1286 2 11.1058C2.00215 9.22191 2.76103 7.41574 4.11016 6.0836C5.45929 4.75145 7.28848 4.00212 9.19643 4C11.5933 4 13.6919 5.01774 15 6.73804C16.3081 5.01774 18.4067 4 20.8036 4C22.7115 4.00212 24.5407 4.75145 25.8898 6.0836C27.239 7.41574 27.9978 9.22191 28 11.1058Z" fill="#C6C6C6"/>
</svg>
