<svg width="20" height="20" viewBox="0 0 20 20" fill="none" xmlns="http://www.w3.org/2000/svg">
    <path fill-rule="evenodd" clip-rule="evenodd" d="M18.9467 2.74768C18.9756 2.55372 18.9503 2.35553 18.8736 2.17505C18.7969 1.99458 18.6717 1.83887 18.5119 1.72516C18.3521 1.61145 18.164 1.54418 17.9683 1.5308C17.7727 1.51742 17.5771 1.55845 17.4034 1.64935L1.61002 9.94101C1.42576 10.0369 1.27374 10.1849 1.17285 10.3664C1.07196 10.548 1.02664 10.7552 1.04254 10.9624C1.05843 11.1695 1.13482 11.3674 1.26223 11.5314C1.38965 11.6955 1.56245 11.8185 1.75919 11.8852L6.66669 13.5677L15.8334 5.00018L8.41502 14.1668L15.5784 16.6227C15.7255 16.6728 15.8818 16.6901 16.0363 16.6734C16.1908 16.6566 16.3398 16.6061 16.4727 16.5256C16.6056 16.445 16.7192 16.3363 16.8056 16.2071C16.8919 16.0779 16.9489 15.9313 16.9725 15.7777L18.9467 2.74768ZM7.36002 14.686V17.411C7.36011 17.6156 7.41931 17.8158 7.53051 17.9875C7.6417 18.1593 7.80014 18.2952 7.98678 18.379C8.17342 18.4629 8.38029 18.491 8.58252 18.46C8.78475 18.429 8.97372 18.3402 9.12669 18.2043L11.4917 16.1027L7.36002 14.686Z" fill="white"/>
</svg>
