<svg width="393" height="524" viewBox="0 0 393 524" fill="none" xmlns="http://www.w3.org/2000/svg">
<g filter="url(#filter0_f_22159_2246)">
<circle cx="196.999" cy="261.819" r="111.819" fill="#EFBF04"/>
</g>
<circle cx="197" cy="261.82" r="122" fill="#EFBF04" stroke="white" stroke-width="12"/>
<mask id="mask0_22159_2246" style="mask-type:alpha" maskUnits="userSpaceOnUse" x="76" y="141" width="242" height="242">
<circle cx="196.999" cy="261.82" r="120.488" fill="white"/>
</mask>
<g mask="url(#mask0_22159_2246)">
<path d="M174.752 393.038H199.308L234.534 222.481L210.99 217.611L174.752 393.038Z" fill="#403301"/>
<path d="M229.648 221.657L234.56 222.524L230.226 219.346L229.648 221.657Z" fill="#403301"/>
<path d="M170.689 389.704H195.246L230.228 219.345L206.928 214.277L170.689 389.704Z" fill="#C2B067"/>
<path d="M276.449 335.666L128.1 305.02L123.898 301.253L139.583 249.448L146.467 249.9L135.851 244.244L141.923 213.969L290.272 244.614L294.482 248.391L288.33 278.169L276.576 278.386L283.044 279.624L287.245 283.391L276.449 335.666Z" fill="#403301"/>
<path d="M272.248 331.898L123.898 301.253L135.382 245.671L142.266 246.123L136.52 240.151L141.923 213.969L290.272 244.614L284.12 274.393L272.374 274.61L283.044 279.624L272.248 331.898Z" fill="#C2B067"/>
<path d="M275.546 274.304C275.546 274.304 275.428 274.304 275.193 274.304L274.154 274.232L270.161 273.906L267.279 273.653L263.855 273.247C261.406 272.94 258.597 272.65 255.534 272.145L250.7 271.413C249.02 271.151 247.285 270.807 245.487 270.509C241.873 269.895 238.052 269.091 234.022 268.278C225.972 266.57 217.164 264.501 207.966 262.161C189.581 257.427 173.011 252.874 160.923 249.919C157.914 249.151 155.168 248.528 152.791 247.95C150.415 247.371 148.274 246.902 146.612 246.531L142.709 245.628L141.697 245.384C141.579 245.358 141.465 245.322 141.354 245.275C141.473 245.28 141.591 245.299 141.706 245.33L142.736 245.519L146.657 246.305C148.364 246.649 150.451 247.091 152.855 247.642C155.258 248.194 158.013 248.79 161.04 249.531C173.147 252.386 189.743 256.885 208.12 261.61C217.317 263.95 226.108 266.037 234.14 267.772C238.169 268.594 241.982 269.416 245.587 270.049C247.394 270.374 249.119 270.717 250.791 270.952L255.606 271.72C258.669 272.253 261.461 272.569 263.909 272.903L267.324 273.355L270.197 273.653L274.181 274.087L275.211 274.213L275.546 274.304Z" fill="#EFBF04"/>
<path d="M282.999 269.56C282.883 269.495 282.772 269.422 282.665 269.343L281.761 268.665C280.939 268.078 279.765 267.148 278.147 266.045C273.694 262.921 269.054 260.073 264.252 257.517C257.123 253.75 249.662 250.647 241.964 248.247C232.527 245.348 222.785 243.553 212.935 242.898C202.446 242.13 192.435 243.151 183.319 243.359C178.996 243.512 174.668 243.425 170.355 243.097C161.146 242.34 152.112 240.141 143.585 236.583C141.778 235.833 140.45 235.201 139.537 234.776L138.507 234.252L138.164 234.062C138.293 234.096 138.417 234.144 138.534 234.207L139.592 234.677C140.495 235.092 141.877 235.698 143.666 236.412C148.715 238.434 153.933 240.003 159.26 241.101C162.934 241.856 166.651 242.381 170.391 242.673C174.688 242.972 178.997 243.041 183.301 242.88C192.39 242.645 202.428 241.606 212.971 242.374C222.865 243.034 232.648 244.854 242.117 247.795C249.835 250.232 257.309 253.384 264.442 257.209C269.237 259.788 273.858 262.679 278.274 265.865C279.837 266.985 280.984 267.952 281.797 268.575L282.701 269.298C282.807 269.377 282.907 269.465 282.999 269.56Z" fill="#EFBF04"/>
<path d="M211.291 229.726C211.068 229.83 210.835 229.911 210.596 229.97L208.563 230.575C207.66 230.846 206.602 231.145 205.329 231.434C204.055 231.723 202.618 232.12 200.992 232.409C199.366 232.698 197.613 233.087 195.689 233.313C193.764 233.539 191.722 233.855 189.563 234.099C184.861 234.553 180.138 234.737 175.415 234.65C170.693 234.524 165.981 234.135 161.303 233.485C159.152 233.141 157.111 232.843 155.213 232.427C153.316 232.012 151.599 231.65 149.964 231.253C148.329 230.855 146.937 230.449 145.682 230.087C144.426 229.726 143.351 229.392 142.483 229.094L140.478 228.398C140.242 228.327 140.012 228.236 139.791 228.127C140.037 228.156 140.279 228.21 140.514 228.29L142.547 228.886C143.45 229.157 144.498 229.473 145.763 229.789C147.028 230.106 148.473 230.539 150.054 230.873C151.635 231.208 153.406 231.641 155.304 231.976C157.201 232.31 159.234 232.653 161.375 232.979C166.032 233.596 170.718 233.967 175.415 234.09C180.115 234.173 184.817 234.004 189.5 233.584C191.65 233.349 193.701 233.159 195.607 232.852C197.514 232.545 199.284 232.283 200.902 231.949C202.519 231.614 203.964 231.325 205.238 231.045C206.512 230.765 207.605 230.512 208.491 230.277L210.542 229.78C210.789 229.734 211.04 229.716 211.291 229.726Z" fill="#EFBF04"/>
<path d="M171.801 282.724C171.801 282.724 172.036 282.85 172.47 283.121L174.421 284.323C176.138 285.362 178.649 286.952 182.01 288.75C186.061 291 190.402 292.682 194.912 293.746C196.273 294.048 197.652 294.26 199.041 294.378C200.494 294.56 201.966 294.241 203.215 293.475C203.821 293.029 204.26 292.393 204.462 291.668C204.657 290.919 204.657 290.131 204.462 289.382C203.988 287.815 202.981 286.463 201.616 285.56C190.304 278.062 174.376 272.596 156.352 272.09C154.102 272.017 151.835 272.017 149.522 272.09C147.209 272.162 144.86 272.704 143.315 274.421C142.925 274.826 142.619 275.304 142.416 275.829C142.213 276.353 142.116 276.912 142.131 277.474C142.215 278.623 142.658 279.716 143.396 280.6C144.851 282.462 146.947 283.754 148.961 285.118C157.093 290.629 165.703 296.104 175.388 299.898C185.073 303.693 195.364 305.401 205.058 303.964C207.45 303.61 209.807 303.054 212.105 302.302C214.368 301.662 216.398 300.382 217.95 298.616C219.338 296.778 220.073 294.53 220.037 292.228C220.044 289.972 219.544 287.742 218.574 285.705C216.603 281.796 213.58 278.513 209.846 276.228C206.331 274.055 202.517 272.408 198.526 271.34C194.686 270.229 190.882 269.434 187.25 268.629L176.797 266.262L145.257 259.098L136.692 257.119L134.47 256.595C133.964 256.478 133.711 256.396 133.711 256.396L134.479 256.541L136.72 257.011L145.311 258.89L176.888 265.883L187.341 268.214C190.955 269.036 194.785 269.813 198.652 270.924C202.692 271.995 206.551 273.654 210.108 275.848C213.926 278.176 217.018 281.524 219.034 285.515C220.037 287.62 220.556 289.923 220.552 292.255C220.593 294.674 219.823 297.037 218.366 298.968C216.751 300.817 214.637 302.16 212.277 302.835C209.948 303.606 207.557 304.171 205.13 304.524C195.318 305.988 184.901 304.244 175.189 300.441C165.477 296.637 156.804 291.162 148.69 285.624C146.685 284.232 144.553 282.913 143.017 280.953C142.205 279.983 141.721 278.781 141.634 277.52C141.618 276.889 141.728 276.262 141.956 275.675C142.184 275.087 142.526 274.55 142.962 274.095C143.799 273.201 144.855 272.54 146.025 272.18C147.161 271.838 148.336 271.644 149.522 271.602C151.853 271.512 154.138 271.521 156.397 271.602C174.53 272.153 190.503 277.664 201.887 285.271C203.321 286.231 204.372 287.663 204.859 289.319C205.071 290.13 205.071 290.983 204.859 291.794C204.637 292.59 204.149 293.285 203.477 293.764C202.162 294.575 200.611 294.916 199.077 294.731C197.67 294.6 196.273 294.38 194.894 294.071C190.368 292.976 186.016 291.254 181.965 288.957C178.604 287.151 176.111 285.506 174.412 284.44C173.581 283.907 172.94 283.537 172.497 283.193C172.054 282.85 171.801 282.724 171.801 282.724Z" fill="#EFBF04"/>
<path d="M280.116 292.363C279.81 292.33 279.508 292.273 279.212 292.191C278.652 292.038 277.812 291.875 276.737 291.685C273.666 291.246 270.548 291.271 267.485 291.758C262.952 292.521 258.554 293.939 254.43 295.968C249.411 298.529 244.564 301.414 239.92 304.605C235.251 307.814 230.356 310.682 225.275 313.188C221.084 315.184 216.61 316.525 212.012 317.163C208.907 317.581 205.756 317.492 202.679 316.901C201.847 316.736 201.027 316.519 200.222 316.251C199.936 316.174 199.658 316.071 199.391 315.944C199.681 315.989 199.968 316.055 200.249 316.142C200.809 316.305 201.64 316.486 202.715 316.693C205.774 317.193 208.891 317.221 211.958 316.775C216.503 316.09 220.919 314.726 225.058 312.727C230.103 310.207 234.966 307.339 239.613 304.144C244.28 300.94 249.158 298.054 254.213 295.507C258.387 293.474 262.843 292.079 267.431 291.369C270.531 290.911 273.684 290.948 276.773 291.478C277.63 291.62 278.478 291.816 279.311 292.065C279.588 292.139 279.857 292.239 280.116 292.363Z" fill="#EFBF04"/>
<path d="M277.373 307.072C277.373 307.126 276.668 306.837 275.367 306.548C273.529 306.149 271.634 306.088 269.775 306.367C267.019 306.833 264.337 307.66 261.797 308.824C258.657 310.197 255.617 311.788 252.699 313.586C249.555 315.447 246.556 317.263 243.664 318.645C241.129 319.899 238.458 320.86 235.705 321.509C233.844 321.932 231.938 322.12 230.031 322.069C229.514 322.057 228.998 322.011 228.486 321.934C228.305 321.925 228.125 321.892 227.953 321.834C227.953 321.771 228.703 321.834 230.031 321.834C231.917 321.807 233.793 321.564 235.624 321.112C238.33 320.413 240.953 319.426 243.448 318.166C246.284 316.775 249.257 314.959 252.41 313.089C255.352 311.273 258.426 309.681 261.607 308.328C264.195 307.164 266.932 306.365 269.739 305.951C271.641 305.7 273.575 305.822 275.43 306.313C275.931 306.449 276.423 306.615 276.903 306.81C277.071 306.875 277.229 306.963 277.373 307.072Z" fill="#EFBF04"/>
<path d="M229.625 232.21C229.625 232.364 223.906 231.244 216.922 229.708C209.938 228.172 204.273 226.808 204.336 226.663C204.4 226.518 210.055 227.63 217.039 229.166C224.023 230.702 229.625 232.066 229.625 232.21Z" fill="#EFBF04"/>
<path d="M188.523 266.488L183.879 265.476L182.578 271.457L173.95 269.587L175.251 263.597L158.727 259.983L159.982 254.219L178.26 237.758L187.421 239.745L170.707 255.249L177.031 256.622L178.187 251.31L186.544 253.117L185.388 258.438L190.032 259.45L188.523 266.488Z" fill="white"/>
<path d="M192.417 257.228C194.658 246.892 201.759 242.24 209.746 243.974C217.733 245.709 222.214 252.91 219.964 263.227C217.715 273.545 210.613 278.225 202.672 276.49C194.73 274.755 190.168 267.546 192.417 257.228ZM211.083 261.294C212.511 254.735 210.993 251.825 208.183 251.211C205.373 250.597 202.762 252.602 201.299 259.162C199.835 265.721 201.398 268.639 204.253 269.262C207.108 269.886 209.656 267.862 211.083 261.294Z" fill="white"/>
<path d="M250.402 279.959L245.758 278.947L244.457 284.937L235.82 283.03L237.13 277.04L220.605 273.426L221.861 267.662L240.129 251.201L249.291 253.216L232.585 268.71L238.91 270.093L240.066 264.771L248.414 266.578L247.258 271.891L251.902 272.902L250.402 279.959Z" fill="white"/>
<path d="M181.911 288.66L181.45 290.621L172.045 288.452L174.981 275.912L184.142 278.053L183.682 280.005L176.86 278.406L176.092 281.667L182.146 283.095L181.703 285.01L175.641 283.592L174.828 287.052L181.911 288.66Z" fill="white"/>
<path d="M192.263 293.148L190.565 288.875C190.4 288.852 190.237 288.819 190.077 288.776L187.24 288.116L186.382 291.73L184.051 291.188L186.996 278.639L192.155 279.849C195.453 280.626 197.106 282.786 196.455 285.568C196.29 286.438 195.849 287.231 195.199 287.832C194.548 288.432 193.722 288.807 192.842 288.902L194.766 293.699L192.263 293.148ZM191.586 281.837L188.875 281.195L187.701 286.201L190.411 286.833C192.453 287.312 193.736 286.625 194.106 285.026C194.477 283.427 193.628 282.316 191.586 281.837Z" fill="white"/>
<path d="M205.366 296.221L203.667 291.948C203.503 291.924 203.34 291.89 203.179 291.849L200.352 291.162L199.448 294.821L197.117 294.27L200.053 281.721L205.221 282.931C208.519 283.708 210.163 285.868 209.513 288.65C209.349 289.521 208.909 290.315 208.258 290.915C207.607 291.516 206.78 291.891 205.899 291.984L207.814 296.782L205.366 296.221ZM204.697 284.91L201.987 284.268L200.812 289.274L203.523 289.906C205.565 290.385 206.839 289.698 207.209 288.099C207.579 286.5 206.739 285.389 204.697 284.91Z" fill="white"/>
<path d="M210.839 290.882C211.742 287.178 215.22 285.109 219.105 286.021C222.99 286.934 225.231 290.331 224.354 294.053C223.478 297.775 219.973 299.835 216.088 298.923C212.203 298.01 209.971 294.595 210.839 290.882ZM222.005 293.502C222.208 292.632 222.147 291.721 221.831 290.885C221.516 290.049 220.959 289.325 220.233 288.806C219.506 288.286 218.641 287.994 217.748 287.965C216.855 287.937 215.974 288.174 215.216 288.647C214.457 289.119 213.856 289.806 213.488 290.621C213.121 291.435 213.002 292.34 213.149 293.221C213.296 294.103 213.7 294.921 214.312 295.572C214.923 296.224 215.714 296.679 216.585 296.881C217.163 297.033 217.767 297.065 218.358 296.976C218.949 296.886 219.516 296.677 220.024 296.361C220.531 296.044 220.969 295.627 221.31 295.136C221.651 294.644 221.887 294.088 222.005 293.502Z" fill="white"/>
<path d="M233.572 302.834L231.873 298.561L231.376 298.461L228.549 297.802L227.69 301.415L225.359 300.873L228.305 288.324L233.463 289.535C236.761 290.312 238.415 292.471 237.764 295.254C237.597 296.123 237.156 296.916 236.506 297.516C235.855 298.116 235.03 298.491 234.15 298.588L236.075 303.385L233.572 302.834ZM232.894 291.513L230.184 290.881L229.009 295.877L231.72 296.519C233.771 296.998 235.045 296.311 235.415 294.712C235.785 293.113 234.936 291.992 232.894 291.513Z" fill="white"/>
<path d="M264.292 184.685C264.739 181.461 260.163 178.809 256.715 178.531C255.078 178.403 253.373 178.651 251.82 178.116C248.455 176.949 247.114 172.625 243.833 171.247C241.378 170.222 238.529 171.134 236.172 172.324C233.816 173.514 231.444 175.013 228.784 175.186C226.511 175.329 223.957 174.478 221.965 175.601C220.449 176.437 219.691 178.169 218.282 179.186C216.873 180.203 215.145 180.391 213.463 180.482C211.78 180.572 210.03 180.595 208.492 181.288C206.954 181.981 205.688 183.608 206.006 185.25L264.292 184.685Z" fill="#FAFAFA"/>
<path d="M156.238 206.239C156.553 203.914 153.294 202.004 150.847 201.803C149.679 201.709 148.464 201.889 147.359 201.5C144.959 200.645 144.003 197.547 141.662 196.551C139.916 195.812 137.902 196.47 136.207 197.329C134.512 198.188 132.833 199.269 130.939 199.389C129.29 199.495 127.502 198.88 126.061 199.692C124.986 200.295 124.426 201.538 123.436 202.256C122.446 202.974 121.201 203.111 119.999 203.192C118.796 203.273 117.552 203.273 116.46 203.778C115.368 204.282 114.459 205.444 114.688 206.632L156.238 206.239Z" fill="white"/>
</g>
<defs>
<filter id="filter0_f_22159_2246" x="-64.8203" y="0" width="523.641" height="523.639" filterUnits="userSpaceOnUse" color-interpolation-filters="sRGB">
<feFlood flood-opacity="0" result="BackgroundImageFix"/>
<feBlend mode="normal" in="SourceGraphic" in2="BackgroundImageFix" result="shape"/>
<feGaussianBlur stdDeviation="75" result="effect1_foregroundBlur_22159_2246"/>
</filter>
</defs>
</svg>
