<svg width="25" height="24" viewBox="0 0 25 24" fill="none" xmlns="http://www.w3.org/2000/svg">
    <path d="M3.79324 15.9989C3.87105 15.9052 3.94746 15.8114 4.02246 15.7209C5.05371 14.4736 5.67761 13.7208 5.67761 10.1897C5.67761 8.36156 6.11495 6.86156 6.97699 5.73656C7.61261 4.90547 8.47183 4.275 9.60433 3.80906C9.6189 3.80096 9.63192 3.79032 9.64277 3.77766C10.0501 2.41359 11.1648 1.5 12.422 1.5C13.6792 1.5 14.7934 2.41359 15.2007 3.77625C15.2116 3.78845 15.2244 3.79875 15.2387 3.80672C17.8815 4.89469 19.1659 6.98203 19.1659 10.1883C19.1659 13.7208 19.7889 14.4736 20.821 15.7195C20.896 15.81 20.9724 15.9019 21.0503 15.9975C21.2513 16.2399 21.3786 16.5348 21.4172 16.8473C21.4559 17.1598 21.4042 17.4769 21.2682 17.7609C20.979 18.3703 20.3626 18.7486 19.659 18.7486H5.1798C4.47949 18.7486 3.8673 18.3708 3.57714 17.7642C3.44063 17.4801 3.38843 17.1628 3.42673 16.8499C3.46503 16.537 3.59222 16.2417 3.79324 15.9989Z" fill="white"/>
    <path d="M12.421 22.5C11.7436 22.4995 11.079 22.3156 10.4977 21.9679C9.9164 21.6202 9.44002 21.1217 9.11911 20.5252C9.10399 20.4966 9.09652 20.4646 9.09743 20.4322C9.09834 20.3999 9.10759 20.3684 9.12429 20.3407C9.141 20.313 9.16457 20.2901 9.19274 20.2742C9.22091 20.2583 9.25271 20.25 9.28505 20.25H15.556C15.5884 20.2499 15.6202 20.2582 15.6484 20.274C15.6767 20.2899 15.7003 20.3128 15.7171 20.3405C15.7338 20.3682 15.7431 20.3997 15.7441 20.4321C15.745 20.4645 15.7375 20.4965 15.7224 20.5252C15.4015 21.1216 14.9252 21.6201 14.344 21.9678C13.7627 22.3155 13.0983 22.4994 12.421 22.5Z" fill="white"/>
</svg>
