<svg width="20" height="21" viewBox="0 0 20 21" fill="none" xmlns="http://www.w3.org/2000/svg">
    <path d="M16.46 17.4998H3.54C2.85875 17.5005 2.20091 17.2512 1.69113 16.7993C1.18134 16.3474 0.855025 15.7242 0.774 15.0478C0.759414 14.929 0.751402 14.8095 0.75 14.6898C0.752346 14.2991 0.83762 13.9133 1.00018 13.558C1.16274 13.2027 1.39889 12.886 1.693 12.6288L2.069 12.2908C2.54942 11.8629 2.87057 11.2848 2.98 10.6508L3.77 5.91679C3.98595 4.58275 4.6258 3.35374 5.59479 2.41176C6.56379 1.46979 7.8104 0.864934 9.15 0.686787C9.34415 0.666234 9.53866 0.722199 9.6922 0.84279C9.84574 0.96338 9.94621 1.13909 9.97225 1.33258C9.99829 1.52607 9.94786 1.72209 9.83166 1.87898C9.71547 2.03588 9.54268 2.14128 9.35 2.17279C8.32845 2.30933 7.37801 2.77119 6.6394 3.48999C5.90079 4.20879 5.41326 5.14632 5.249 6.16379L4.46 10.9038C4.29174 11.8727 3.80082 12.7562 3.067 13.4108L2.691 13.7488C2.5549 13.8653 2.44518 14.0095 2.36914 14.1718C2.29311 14.334 2.25249 14.5106 2.25 14.6898C2.25191 14.753 2.25725 14.8161 2.266 14.8788C2.30462 15.1891 2.45557 15.4745 2.69031 15.681C2.92505 15.8876 3.22733 16.001 3.54 15.9998H16.46C16.7778 16.0015 17.0848 15.8842 17.3206 15.671C17.5563 15.4578 17.7038 15.1642 17.734 14.8478L17.747 14.7458C17.7621 14.5422 17.7289 14.3379 17.6502 14.1496C17.5715 13.9613 17.4494 13.7941 17.294 13.6618L17.023 13.4378C16.255 12.7796 15.741 11.8737 15.57 10.8768L15.06 7.79179C15.0288 7.59604 15.0764 7.3959 15.1923 7.23511C15.3082 7.07432 15.4831 6.96597 15.6786 6.93372C15.8742 6.90148 16.0746 6.94797 16.236 7.06304C16.3974 7.1781 16.5067 7.35238 16.54 7.54779L17.05 10.6278C17.1598 11.2743 17.4915 11.8624 17.988 12.2908L18.268 12.5208C18.6104 12.8151 18.877 13.1874 19.0455 13.6063C19.2139 14.0251 19.2793 14.4784 19.236 14.9278C19.1814 15.627 18.8654 16.28 18.351 16.7566C17.8365 17.2333 17.1613 17.4986 16.46 17.4998Z" fill="#232323"/>
    <path d="M10 20.75C9.00584 20.7487 8.05279 20.3532 7.34981 19.6502C6.64684 18.9472 6.25132 17.9942 6.25 17V16.75C6.25 16.5511 6.32902 16.3603 6.46967 16.2197C6.61032 16.079 6.80109 16 7 16C7.19891 16 7.38968 16.079 7.53033 16.2197C7.67098 16.3603 7.75 16.5511 7.75 16.75V17C7.75 17.5967 7.98705 18.169 8.40901 18.591C8.83097 19.0129 9.40326 19.25 10 19.25C10.5967 19.25 11.169 19.0129 11.591 18.591C12.0129 18.169 12.25 17.5967 12.25 17V16.75C12.25 16.5511 12.329 16.3603 12.4697 16.2197C12.6103 16.079 12.8011 16 13 16C13.1989 16 13.3897 16.079 13.5303 16.2197C13.671 16.3603 13.75 16.5511 13.75 16.75V17C13.7487 17.9942 13.3532 18.9472 12.6502 19.6502C11.9472 20.3532 10.9942 20.7487 10 20.75Z" fill="#232323"/>
</svg>
