<svg width="24" height="24" viewBox="0 0 24 24" fill="none" xmlns="http://www.w3.org/2000/svg">
    <path d="M18.5687 10.3525H18.0546V6.65409C18.0546 3.31569 15.3385 0.599609 12.0001 0.599609C8.66171 0.599609 5.94563 3.31569 5.94563 6.65409V10.3525H5.43155C3.95075 10.3525 2.75195 11.5539 2.75195 13.0321V20.7174C2.75195 22.1982 3.95099 23.3996 5.43155 23.3996H18.5689C20.0497 23.3996 21.2485 22.1982 21.2485 20.7174V13.0321C21.2485 11.5537 20.0495 10.3525 18.5689 10.3525H18.5687ZM13.2246 17.3307V19.5159C13.2246 19.8407 13.0956 20.1521 12.866 20.3818C12.6363 20.6114 12.3249 20.7404 12.0001 20.7404C11.6754 20.7404 11.3639 20.6114 11.1343 20.3818C10.9046 20.1521 10.7756 19.8407 10.7756 19.5159V17.3307C10.4358 17.1227 10.155 16.8309 9.96032 16.4832C9.76562 16.1355 9.66348 15.7437 9.66371 15.3452C9.66371 14.0566 10.7116 13.0114 12.0001 13.0114C13.2887 13.0114 14.3365 14.0566 14.3365 15.3452C14.3367 15.7437 14.2346 16.1355 14.0399 16.4832C13.8452 16.8309 13.5645 17.1227 13.2246 17.3307ZM15.3736 10.3525H8.62667V6.65409C8.62667 4.79385 10.1399 3.28065 12.0001 3.28065C13.8604 3.28065 15.3736 4.79385 15.3736 6.65409V10.3525Z" fill="#305CDE"/>
</svg>
