<svg width="24" height="24" viewBox="0 0 24 24" fill="none" xmlns="http://www.w3.org/2000/svg">
    <path d="M21.0379 5.1377V11.1752C21.0379 16.6502 17.3254 21.4502 12.0004 22.8002C6.67539 21.4502 2.96289 16.6502 2.96289 11.1752V5.1377C7.12539 4.6502 9.52539 3.0752 12.0004 1.2002C14.4754 3.0752 16.8754 4.6502 21.0379 5.1377Z" fill="#305CDE"/>
    <path d="M12 20.3998C7.9875 19.1248 5.25 15.4123 5.25 11.1748V7.0873C8.0625 6.4873 10.125 5.3248 12 4.0498C13.9125 5.3623 15.9375 6.4873 18.75 7.0873V11.1748C18.75 15.4123 16.0125 19.1248 12 20.3998Z" fill="#305CDE"/>
    <path d="M10.5 15.6754L8.25 13.4629L9.4125 12.3379L10.5 13.4254L14.5875 9.33789L15.75 10.4629L10.5 15.6754Z" fill="white"/>
</svg>
