<svg width="24" height="24" viewBox="0 0 24 24" fill="none" xmlns="http://www.w3.org/2000/svg">
    <path d="M16.8235 13.9871L12.8109 17.9996C12.5953 18.2152 12.45 18.5059 12.4125 18.8105L12.0891 21.248C12.0609 21.473 12.0844 21.6934 12.1594 21.9043H2.22189C0.951575 21.9043 0.0468871 20.6668 0.43595 19.4574L1.97814 14.6387C2.47501 13.0918 4.1672 12.2902 5.67657 12.8762C6.6797 13.2652 7.96876 13.5699 9.54845 13.5699C11.1281 13.5699 12.4172 13.2652 13.4203 12.8762C14.7047 12.3746 16.1203 12.8762 16.8235 13.9871ZM9.55314 2.09961C6.88595 2.09961 4.72032 4.26523 4.72032 6.93242C4.72032 9.59961 6.88595 11.7652 9.55314 11.7652C12.2203 11.7652 14.386 9.59961 14.386 6.93242C14.386 4.26523 12.2203 2.09961 9.55314 2.09961ZM18.8813 13.2559L13.4719 18.6605C13.3969 18.7309 13.3547 18.8293 13.3406 18.9324L13.0172 21.3699C12.975 21.6746 13.2375 21.9371 13.5422 21.8949L15.9797 21.5715C16.0828 21.5574 16.1766 21.5105 16.2516 21.4402L21.6563 16.0309L18.8813 13.2559ZM23.3109 12.7168L22.1906 11.5965C21.7313 11.1371 20.9906 11.1371 20.5359 11.5965L19.8469 12.2855L22.6219 15.0605L23.3109 14.3715C23.7656 13.9168 23.7656 13.1762 23.3109 12.7168Z" fill="#E20070"/>
</svg>
