<svg width="28" height="28" viewBox="0 0 28 28" fill="none" xmlns="http://www.w3.org/2000/svg">
    <circle cx="13.9937" cy="13.817" r="13.2906" fill="#EFBF04"/>
    <path d="M12.752 13.4334C12.752 13.0118 12.9194 12.6074 13.2175 12.3093C13.5156 12.0112 13.92 11.8438 14.3416 11.8438C14.7632 11.8438 15.1675 12.0112 15.4656 12.3093C15.7637 12.6074 15.9312 13.0118 15.9312 13.4334C15.9312 13.855 15.7637 14.2593 15.4656 14.5574C15.1675 14.8555 14.7632 15.023 14.3416 15.023C13.92 15.023 13.5156 14.8555 13.2175 14.5574C12.9194 14.2593 12.752 13.855 12.752 13.4334Z" fill="white"/>
    <path fill-rule="evenodd" clip-rule="evenodd" d="M11.143 9.64803C11.143 9.35652 11.2005 9.06786 11.312 8.79854C11.4236 8.52922 11.5871 8.28452 11.7932 8.07839C12.2095 7.66209 12.7741 7.42822 13.3628 7.42822H15.3184C15.9071 7.42822 16.4718 7.66209 16.8881 8.07839C17.3043 8.49468 17.5382 9.0593 17.5382 9.64803C17.5383 9.65307 17.5403 9.6579 17.5436 9.66166C17.547 9.66541 17.5516 9.66784 17.5566 9.66851L19.1321 9.79568C19.8379 9.85362 20.4179 10.375 20.55 11.0709C20.8859 12.846 20.9108 14.6659 20.6235 16.4494L20.5549 16.8762C20.4921 17.2671 20.2999 17.6257 20.0091 17.8946C19.7184 18.1634 19.3459 18.327 18.9512 18.3591L17.5785 18.47C15.4235 18.6451 13.2578 18.6451 11.1028 18.47L9.73005 18.3591C9.33526 18.3269 8.96268 18.1633 8.67192 17.8943C8.38116 17.6253 8.18904 17.2666 8.12631 16.8755L8.05778 16.4494C7.77024 14.6655 7.79567 12.8463 8.13126 11.0709C8.19542 10.7325 8.36891 10.4245 8.62507 10.1943C8.88123 9.96403 9.20589 9.82425 9.54919 9.79639L11.1247 9.66851C11.1298 9.66815 11.1346 9.66581 11.138 9.66199C11.1414 9.65816 11.1432 9.65316 11.143 9.64803ZM14.3406 10.7841C13.638 10.7841 12.9641 11.0632 12.4673 11.56C11.9704 12.0569 11.6913 12.7308 11.6913 13.4334C11.6913 14.1361 11.9704 14.8099 12.4673 15.3068C12.9641 15.8036 13.638 16.0828 14.3406 16.0828C15.0433 16.0828 15.7172 15.8036 16.214 15.3068C16.7109 14.8099 16.99 14.1361 16.99 13.4334C16.99 12.7308 16.7109 12.0569 16.214 11.56C15.7172 11.0632 15.0433 10.7841 14.3406 10.7841Z" fill="white"/>
</svg>
