<svg width="25" height="24" viewBox="0 0 25 24" fill="none" xmlns="http://www.w3.org/2000/svg">
    <path d="M15.0321 16.1835L14.7092 17.13H14.7092L15.0321 16.1835ZM16.5447 19.2956C16.708 19.8232 17.268 20.1186 17.7956 19.9553C18.3232 19.792 18.6186 19.232 18.4553 18.7044L17.5 19L16.5447 19.2956ZM9.96773 16.1835L10.2906 17.13H10.2906L9.96773 16.1835ZM12.4999 16V17C13.9106 17 14.3678 17.0135 14.7092 17.13L15.0321 16.1835L15.355 15.2371C14.6206 14.9865 13.7482 15 12.4999 15V16ZM15.0321 16.1835L14.7092 17.13C15.0241 17.2374 15.4115 17.5168 15.7787 17.9496C16.1395 18.375 16.4127 18.8692 16.5447 19.2956L17.5 19L18.4553 18.7044C18.234 17.9891 17.8169 17.2606 17.3039 16.6559C16.7973 16.0587 16.1274 15.5006 15.355 15.2371L15.0321 16.1835ZM12.4999 16V15C11.2516 15 10.3793 14.9865 9.64484 15.2371L9.96773 16.1835L10.2906 17.13C10.6321 17.0135 11.0893 17 12.4999 17V16ZM9.96773 16.1835L9.64484 15.2371C8.87243 15.5006 8.20256 16.0587 7.696 16.6559C7.18303 17.2607 6.76601 17.9892 6.54469 18.7044L7.5 19L8.45531 19.2956C8.58727 18.8692 8.86048 18.3749 9.22123 17.9496C9.5884 17.5167 9.97576 17.2374 10.2906 17.13L9.96773 16.1835ZM21.5 12H20.5C20.5 16.4183 16.9183 20 12.5 20V21V22C18.0228 22 22.5 17.5228 22.5 12H21.5ZM12.5 21V20C8.08172 20 4.5 16.4183 4.5 12H3.5H2.5C2.5 17.5228 6.97715 22 12.5 22V21ZM3.5 12H4.5C4.5 7.58172 8.08172 4 12.5 4V3V2C6.97715 2 2.5 6.47715 2.5 12H3.5ZM12.5 3V4C16.9183 4 20.5 7.58172 20.5 12H21.5H22.5C22.5 6.47715 18.0228 2 12.5 2V3ZM15 10.5H14C14 11.3284 13.3284 12 12.5 12V13V14C14.433 14 16 12.433 16 10.5H15ZM12.5 13V12C11.6716 12 11 11.3284 11 10.5H10H9C9 12.433 10.567 14 12.5 14V13ZM10 10.5H11C11 9.67157 11.6716 9 12.5 9V8V7C10.567 7 9 8.567 9 10.5H10ZM12.5 8V9C13.3284 9 14 9.67157 14 10.5H15H16C16 8.567 14.433 7 12.5 7V8Z" fill="#305CDE"/>
</svg>
