<svg width="30" height="30" viewBox="0 0 30 30" fill="none" xmlns="http://www.w3.org/2000/svg">
    <path d="M15 12.5C17.4162 12.5 19.375 10.5412 19.375 8.125C19.375 5.70876 17.4162 3.75 15 3.75C12.5838 3.75 10.625 5.70876 10.625 8.125C10.625 10.5412 12.5838 12.5 15 12.5Z" fill="#C6C6C6" stroke="#C6C6C6" stroke-width="2" stroke-linecap="round" stroke-linejoin="round"/>
    <path d="M3.75 25.5V26.25H26.25V25.5C26.25 22.6997 26.25 21.2996 25.7051 20.2301C25.2257 19.2892 24.4608 18.5243 23.5199 18.0449C22.4504 17.5 21.0503 17.5 18.25 17.5H11.75C8.94975 17.5 7.54963 17.5 6.48006 18.0449C5.53924 18.5243 4.77433 19.2892 4.29497 20.2301C3.75 21.2996 3.75 22.6997 3.75 25.5Z" fill="#C6C6C6" stroke="#C6C6C6" stroke-width="2" stroke-linecap="round" stroke-linejoin="round"/>
</svg>
