<svg width="24" height="24" viewBox="0 0 24 24" fill="none" xmlns="http://www.w3.org/2000/svg">
    <g clip-path="url(#clip0_22622_471)">
        <path d="M21.6 2.4H20.4V1.2C20.4 0.48 19.92 0 19.2 0C18.48 0 18 0.48 18 1.2V2.4H6V1.2C6 0.48 5.52 0 4.8 0C4.08 0 3.6 0.48 3.6 1.2V2.4H1.2C0.6 2.4 0 2.88 0 3.6V20.4C0 21.12 0.6 21.6 1.2 21.6H8.52C7.68 20.16 7.2 18.48 7.2 16.8C7.2 11.52 11.52 7.2 16.8 7.2C19.08 7.2 21.12 8.04 22.8 9.36V3.6C22.8 3 22.2 2.4 21.6 2.4Z" fill="#305CDE"/>
        <path d="M16.7996 9.59961C12.8396 9.59961 9.59961 12.8396 9.59961 16.7996C9.59961 20.7596 12.8396 23.9996 16.7996 23.9996C20.7596 23.9996 23.9996 20.7596 23.9996 16.7996C23.9996 12.8396 20.7596 9.59961 16.7996 9.59961ZM19.1996 17.9996H16.7996C16.0796 17.9996 15.5996 17.5196 15.5996 16.7996V13.1996C15.5996 12.4796 16.0796 11.9996 16.7996 11.9996C17.5196 11.9996 17.9996 12.4796 17.9996 13.1996V15.5996H19.1996C19.9196 15.5996 20.3996 16.0796 20.3996 16.7996C20.3996 17.5196 19.9196 17.9996 19.1996 17.9996Z" fill="#305CDE"/>
    </g>
    <defs>
        <clipPath id="clip0_22622_471">
            <rect width="24" height="24" fill="white"/>
        </clipPath>
    </defs>
</svg>
