<svg width="24" height="24" viewBox="0 0 24 24" fill="none" xmlns="http://www.w3.org/2000/svg">
    <g clip-path="url(#clip0_17024_5415)">
        <path d="M23.4657 9.91932L22.2659 9.62411C22.0128 8.48519 21.5629 7.40247 20.9442 6.41824L21.5488 5.40593C21.7174 5.12472 21.6754 4.77321 21.4503 4.54821L20.4661 3.56398L19.4538 2.55167C19.2288 2.32667 18.8773 2.28453 18.596 2.45323L17.5836 3.05782C16.5995 2.43917 15.5167 1.98921 14.3778 1.73614L14.0826 0.53628C14.0122 0.226906 13.731 0.00195312 13.4077 0.00195312H10.5955C10.2722 0.00195312 9.99103 0.226859 9.92067 0.53628L9.62545 1.73614C8.48644 1.98921 7.40377 2.43917 6.41959 3.05782L5.40718 2.45323C5.12598 2.28448 4.77446 2.32662 4.54947 2.55167L2.55274 4.54826C2.32774 4.77316 2.28559 5.12468 2.4543 5.40597L3.05889 6.41828C2.44024 7.40252 1.99028 8.48523 1.73721 9.62415L0.537348 9.91937C0.227974 9.98973 0.00302124 10.2709 0.00302124 10.5943V13.4064C0.00302124 13.7298 0.227927 14.011 0.537348 14.0813L1.73721 14.3766C2.06055 15.7967 2.69331 17.1465 3.56509 18.3136L5.68824 20.4368C6.85534 21.3086 8.20505 21.9413 9.62527 22.2647L9.92049 23.4645C9.99084 23.7738 10.272 23.9989 10.5953 23.9989H13.4075C13.7309 23.9989 14.012 23.7739 14.0824 23.4645L14.3776 22.2647C15.5166 22.0116 16.5993 21.5616 17.5835 20.9429L18.5958 21.5475C18.8771 21.7163 19.2286 21.6741 19.4536 21.4491L21.4502 19.4525C21.6752 19.2276 21.7172 18.8761 21.5487 18.5948L20.944 17.5824C21.5628 16.5982 22.0126 15.5155 22.2658 14.3766L23.4656 14.0813C23.775 14.011 23.9999 13.7298 23.9999 13.4064V10.5943C24 10.2708 23.7752 9.98968 23.4657 9.91932ZM12.0015 18.3277C10.3565 18.3277 8.85188 17.709 7.74104 16.6545C7.67072 16.6122 7.61452 16.556 7.54426 16.4857C6.39127 15.3468 5.67414 13.7579 5.67414 12.0003C5.67414 8.4992 8.50032 5.67302 12.0015 5.67302C13.759 5.67302 15.3479 6.39011 16.4867 7.54305C16.5571 7.61341 16.6134 7.66966 16.6557 7.73987C17.7102 8.85072 18.3288 10.3552 18.3288 12.0003C18.3288 15.5015 15.5026 18.3277 12.0015 18.3277Z" fill="#E20070"/>
        <path d="M24 10.5948V13.4069C24 13.7302 23.7752 14.0115 23.4657 14.0817L22.2659 14.3771C22.0128 15.516 21.5629 16.5986 20.9442 17.5828L21.5489 18.5952C21.7174 18.8765 21.6754 19.228 21.4503 19.453L19.4538 21.4496C19.2288 21.6746 18.8773 21.7167 18.5959 21.548L17.5836 20.9434C16.5994 21.5621 15.5167 22.012 14.3777 22.2651L14.0825 23.465C14.0121 23.7743 13.731 23.9993 13.4076 23.9993H10.5955C10.2721 23.9993 9.99098 23.7743 9.92062 23.465L9.6254 22.2651C8.20518 21.9418 6.85537 21.309 5.68837 20.4373L4.63382 19.3827L7.54438 16.4862C7.61469 16.5565 7.6709 16.6127 7.74116 16.655C8.85201 17.7095 10.3566 18.3282 12.0016 18.3282C15.5028 18.3282 18.329 15.502 18.329 12.0009C18.329 10.3557 17.7104 8.85125 16.6558 7.74041C16.6136 7.67009 16.5573 7.61389 16.4869 7.54358L20.4661 3.56445L21.4503 4.54869C21.6753 4.77359 21.7174 5.12511 21.5489 5.40641L20.9442 6.41872C21.5629 7.40295 22.0128 8.48567 22.2659 9.62459L23.4657 9.91981C23.7752 9.99017 24 10.2713 24 10.5948Z" fill="#E20070"/>
        <path d="M16.7629 10.7319C16.7326 10.6113 16.6709 10.5008 16.584 10.4118C16.497 10.3228 16.3881 10.2585 16.2681 10.2254C16.1483 10.1924 16.0218 10.1918 15.9016 10.2236C15.7814 10.2555 15.6718 10.3186 15.584 10.4067L13.9898 12.0008C13.7248 12.2658 13.3719 12.4114 12.9957 12.4114C12.6195 12.4114 12.2666 12.2658 12.0016 12.0008C11.4537 11.4529 11.4537 10.5604 12.0016 10.0125L13.6066 8.40745C13.7833 8.23083 13.8514 7.97311 13.7854 7.73231C13.7193 7.49152 13.5291 7.3043 13.2871 7.2428C12.6843 7.08966 11.8973 7.01864 11.0871 7.16119C9.10363 7.52508 7.52591 9.1028 7.16131 11.0897C7.0041 11.9685 7.07413 12.8438 7.36175 13.6499C6.96167 14.0499 0.782892 20.2286 0.616814 20.3948C-0.207764 21.2194 -0.207764 22.5609 0.629845 23.3985C1.45963 24.1851 2.73045 24.2182 3.60744 23.3855L10.3524 16.6405C11.4325 17.026 12.6372 17.0182 13.816 16.6022C15.4082 16.0403 16.51 14.5709 16.841 12.9152L16.8418 12.9118C16.9839 12.1167 16.9142 11.3349 16.7629 10.7319Z" fill="#E20070"/>
        <path d="M3.60752 23.3855L10.3525 16.6405C11.4326 17.026 12.6372 17.0182 13.8161 16.6023C15.4084 16.0404 16.5101 14.5709 16.8412 12.9153L16.8419 12.9118C16.9853 12.1095 16.913 11.3206 16.7588 10.7155C16.7285 10.5965 16.6672 10.4878 16.5812 10.4002C16.4952 10.3126 16.3876 10.2494 16.2692 10.217C16.1509 10.1846 16.0261 10.1842 15.9076 10.2157C15.789 10.2472 15.6809 10.3095 15.5943 10.3964L13.9899 12.0008C13.7249 12.2658 13.372 12.4114 12.9958 12.4114C12.626 12.4114 12.2808 12.2677 12.0173 12.0113L0.629883 23.3986C1.45966 24.1851 2.73049 24.2182 3.60752 23.3855Z" fill="#E20070"/>
    </g>
    <defs>
        <clipPath id="clip0_17024_5415">
            <rect width="24" height="24" fill="white"/>
        </clipPath>
    </defs>
</svg>
