<svg width="36" height="36" viewBox="0 0 36 36" fill="none" xmlns="http://www.w3.org/2000/svg">
    <g clip-path="url(#clip0_22257_4247)">
        <path d="M17.9992 35.8314C27.8471 35.8314 35.8305 27.8481 35.8305 18.0002C35.8305 8.15227 27.8471 0.168945 17.9992 0.168945C8.15129 0.168945 0.167969 8.15227 0.167969 18.0002C0.167969 27.8481 8.15129 35.8314 17.9992 35.8314Z" fill="#32BA7C"/>
        <path d="M13.4414 26.0439L22.6102 35.2127C30.2039 33.1877 35.8289 26.2689 35.8289 18.0002V17.4939L28.6289 10.8564L13.4414 26.0439Z" fill="#0AA06E"/>
        <path d="M18.4508 21.9938C19.2383 22.7813 19.2383 24.1313 18.4508 24.9188L16.8195 26.55C16.032 27.3375 14.682 27.3375 13.8945 26.55L6.75078 19.35C5.96328 18.5625 5.96328 17.2125 6.75078 16.425L8.38203 14.7938C9.16953 14.0062 10.5195 14.0062 11.307 14.7938L18.4508 21.9938Z" fill="white"/>
        <path d="M24.6961 9.5623C25.4836 8.7748 26.8336 8.7748 27.6211 9.5623L29.2523 11.1936C30.0398 11.9811 30.0398 13.3311 29.2523 14.1186L16.8773 26.4373C16.0898 27.2248 14.7398 27.2248 13.9523 26.4373L12.3211 24.8061C11.5336 24.0186 11.5336 22.6686 12.3211 21.8811L24.6961 9.5623Z" fill="white"/>
    </g>
    <defs>
        <clipPath id="clip0_22257_4247">
            <rect width="36" height="36" fill="white"/>
        </clipPath>
    </defs>
</svg>
