<svg width="24" height="24" viewBox="0 0 24 24" fill="none" xmlns="http://www.w3.org/2000/svg">
    <path fill-rule="evenodd" clip-rule="evenodd" d="M12.2731 3.23517C10.528 3.17661 8.80844 3.66681 7.35654 4.63677C5.72407 5.72817 4.52852 7.36003 3.98001 9.24557C3.83147 9.22743 3.65361 9.23543 3.44241 9.29517C2.65387 9.51917 2.06107 10.165 1.79441 10.7341C1.44827 11.4757 1.30241 12.4568 1.45627 13.469C1.60907 14.4784 2.03547 15.3104 2.56881 15.8269C3.10374 16.3437 3.70774 16.5117 4.30774 16.3856C5.20107 16.1949 5.64401 16.0522 5.51894 15.2202L4.91361 11.1856C4.97508 10.0875 5.29102 9.01869 5.83648 8.06366C6.38193 7.10863 7.14196 6.2935 8.05654 5.68263C9.28909 4.85806 10.7492 4.44071 12.2313 4.48931C13.7135 4.53791 15.1431 5.05002 16.3189 5.95357C17.1308 6.57602 17.7984 7.36672 18.2759 8.27142C18.7535 9.17612 19.0297 10.1734 19.0856 11.1949L18.6621 14.017C18.2027 15.2765 17.3955 16.38 16.3344 17.1994C15.2732 18.0187 14.0015 18.5205 12.6667 18.6464H10.8624C10.752 18.6461 10.6426 18.6677 10.5406 18.7098C10.4385 18.7519 10.3458 18.8138 10.2677 18.8918C10.1896 18.9699 10.1277 19.0626 10.0855 19.1646C10.0433 19.2666 10.0217 19.376 10.0219 19.4864V19.9296C10.0217 20.04 10.0433 20.1494 10.0854 20.2514C10.1276 20.3535 10.1895 20.4462 10.2676 20.5243C10.3457 20.6024 10.4384 20.6642 10.5405 20.7064C10.6426 20.7485 10.752 20.7701 10.8624 20.7698H13.1373C13.2476 20.77 13.3569 20.7484 13.4588 20.7062C13.5607 20.6641 13.6533 20.6022 13.7312 20.5241C13.8092 20.4461 13.8709 20.3534 13.9129 20.2514C13.9549 20.1494 13.9764 20.0401 13.976 19.9298V19.6978C16.0199 19.1974 17.8006 17.9459 18.9637 16.1922L19.6925 16.3856C20.2856 16.5394 20.8968 16.3434 21.4315 15.8269C21.9648 15.3101 22.3909 14.4784 22.544 13.469C22.6987 12.4565 22.5483 11.4773 22.2064 10.7341C21.8632 9.9909 21.352 9.5189 20.7619 9.34957C20.5147 9.27837 20.2464 9.25223 20.0163 9.24557C19.5209 7.54025 18.4942 6.03755 17.0856 4.95623C15.701 3.89326 14.0178 3.29133 12.2731 3.23517Z" fill="#E20070"/>
    <path fill-rule="evenodd" clip-rule="evenodd" d="M14.936 10.4933C15.225 10.4937 15.502 10.6086 15.7064 10.813C15.9107 11.0174 16.0256 11.2944 16.0259 11.5834C16.0254 11.8724 15.9104 12.1494 15.706 12.3537C15.5017 12.5581 15.2247 12.6731 14.9357 12.6736C14.6464 12.6736 14.369 12.5589 14.1643 12.3545C13.9595 12.15 13.8444 11.8727 13.844 11.5834C13.8441 11.4402 13.8724 11.2983 13.9273 11.1659C13.9822 11.0336 14.0626 10.9133 14.164 10.8121C14.2654 10.7108 14.3857 10.6305 14.5181 10.5758C14.6505 10.5211 14.7924 10.4929 14.9357 10.493L14.936 10.4933ZM12 10.4933C12.2156 10.4934 12.4263 10.5574 12.6055 10.6773C12.7847 10.7971 12.9243 10.9674 13.0067 11.1666C13.0892 11.3658 13.1107 11.5849 13.0686 11.7963C13.0265 12.0078 12.9227 12.202 12.7702 12.3544C12.6178 12.5068 12.4235 12.6106 12.2121 12.6526C12.0007 12.6947 11.7815 12.6731 11.5824 12.5906C11.3832 12.5081 11.2129 12.3684 11.0931 12.1892C10.9734 12.01 10.9094 11.7993 10.9093 11.5837C10.9092 11.4404 10.9373 11.2985 10.9921 11.1662C11.0468 11.0338 11.1272 10.9135 11.2285 10.8122C11.3298 10.7109 11.4501 10.6305 11.5825 10.5758C11.7148 10.521 11.8567 10.4932 12 10.4933ZM9.0648 10.4933C9.20999 10.4901 9.35436 10.5159 9.48943 10.5693C9.6245 10.6226 9.74756 10.7024 9.85137 10.8039C9.95519 10.9055 10.0377 11.0267 10.094 11.1606C10.1503 11.2945 10.1793 11.4382 10.1793 11.5834C10.1793 11.7287 10.1503 11.8724 10.094 12.0063C10.0377 12.1401 9.95519 12.2614 9.85137 12.3629C9.74756 12.4645 9.6245 12.5443 9.48943 12.5976C9.35436 12.651 9.20999 12.6768 9.0648 12.6736C8.7786 12.6691 8.50563 12.5523 8.30482 12.3483C8.10401 12.1443 7.99145 11.8695 7.99145 11.5833C7.99145 11.2971 8.10401 11.0223 8.30482 10.8183C8.50563 10.6143 8.7786 10.4978 9.0648 10.4933ZM12 5.80957C8.80267 5.80957 6.22614 8.3013 6.22614 11.5832C6.22614 13.1594 6.82214 14.5525 7.79307 15.5746L7.44854 17.1192C7.33494 17.6274 7.68747 17.9693 8.14454 17.7149L9.65254 16.8736C10.3935 17.1944 11.1926 17.3591 12 17.3573C15.1984 17.3573 17.7733 14.8672 17.7733 11.584C17.7733 8.30184 15.1984 5.8101 12 5.8101V5.80957Z" fill="#E20070"/>
</svg>
