<svg width="24" height="24" viewBox="0 0 24 24" fill="none" xmlns="http://www.w3.org/2000/svg">
    <path d="M17 1.25H3C2.53652 1.2521 2.09262 1.43715 1.76489 1.76489C1.43715 2.09262 1.2521 2.53652 1.25 3V21C1.2521 21.4635 1.43715 21.9074 1.76489 22.2351C2.09262 22.5628 2.53652 22.7479 3 22.75H18C18.11 22.75 18.22 22.75 18.33 22.74C18.3418 22.7281 18.3553 22.718 18.37 22.71C18.5527 22.2099 18.6736 21.6894 18.73 21.16C18.4913 21.22 18.2461 21.2503 18 21.25C17.138 21.25 16.3114 20.9076 15.7019 20.2981C15.0924 19.6886 14.75 18.862 14.75 18C14.75 17.138 15.0924 16.3114 15.7019 15.7019C16.3114 15.0924 17.138 14.75 18 14.75C18.2527 14.7491 18.5046 14.7794 18.75 14.84V3C18.7479 2.53652 18.5628 2.09262 18.2351 1.76489C17.9074 1.43715 17.4635 1.2521 17 1.25ZM5.5 5.25H14.5C14.6989 5.25 14.8897 5.32902 15.0303 5.46967C15.171 5.61032 15.25 5.80109 15.25 6C15.25 6.19891 15.171 6.38968 15.0303 6.53033C14.8897 6.67098 14.6989 6.75 14.5 6.75H5.5C5.30109 6.75 5.11032 6.67098 4.96967 6.53033C4.82902 6.38968 4.75 6.19891 4.75 6C4.75 5.80109 4.82902 5.61032 4.96967 5.46967C5.11032 5.32902 5.30109 5.25 5.5 5.25ZM5.5 9.25H14.5C14.6989 9.25 14.8897 9.32902 15.0303 9.46967C15.171 9.61032 15.25 9.80109 15.25 10C15.25 10.1989 15.171 10.3897 15.0303 10.5303C14.8897 10.671 14.6989 10.75 14.5 10.75H5.5C5.30109 10.75 5.11032 10.671 4.96967 10.5303C4.82902 10.3897 4.75 10.1989 4.75 10C4.75 9.80109 4.82902 9.61032 4.96967 9.46967C5.11032 9.32902 5.30109 9.25 5.5 9.25ZM11 18.75H5.5C5.30109 18.75 5.11032 18.671 4.96967 18.5303C4.82902 18.3897 4.75 18.1989 4.75 18C4.75 17.8011 4.82902 17.6103 4.96967 17.4697C5.11032 17.329 5.30109 17.25 5.5 17.25H11C11.1989 17.25 11.3897 17.329 11.5303 17.4697C11.671 17.6103 11.75 17.8011 11.75 18C11.75 18.1989 11.671 18.3897 11.5303 18.5303C11.3897 18.671 11.1989 18.75 11 18.75ZM12 14.75H5.5C5.30109 14.75 5.11032 14.671 4.96967 14.5303C4.82902 14.3897 4.75 14.1989 4.75 14C4.75 13.8011 4.82902 13.6103 4.96967 13.4697C5.11032 13.329 5.30109 13.25 5.5 13.25H12C12.1989 13.25 12.3897 13.329 12.5303 13.4697C12.671 13.6103 12.75 13.8011 12.75 14C12.75 14.1989 12.671 14.3897 12.5303 14.5303C12.3897 14.671 12.1989 14.75 12 14.75Z" fill="#E20070"/>
    <path d="M18.75 13.3101C18.1328 13.2195 17.5038 13.2514 16.8989 13.4039C16.294 13.5563 15.725 13.8265 15.2245 14.1988C14.724 14.5712 14.3017 15.0385 13.9818 15.5741C13.6619 16.1096 13.4506 16.7029 13.36 17.3201C13.2694 17.9374 13.3012 18.5664 13.4537 19.1713C13.6062 19.7762 13.8763 20.3451 14.2487 20.8456C14.6211 21.3462 15.0884 21.7684 15.6239 22.0883C16.1595 22.4082 16.7528 22.6195 17.37 22.7101C17.5788 22.7384 17.7893 22.7518 18 22.7501C18.11 22.7501 18.22 22.7501 18.33 22.7401C19.4943 22.6602 20.5883 22.1545 21.4035 21.3194C22.2187 20.4844 22.698 19.3785 22.7499 18.2126C22.8019 17.0468 22.4228 15.9027 21.6851 14.9985C20.9473 14.0943 19.9025 13.4933 18.75 13.3101ZM18.73 21.1601C18.4913 21.2202 18.2461 21.2504 18 21.2501C17.1381 21.2501 16.3114 20.9077 15.7019 20.2982C15.0924 19.6887 14.75 18.8621 14.75 18.0001C14.75 17.1382 15.0924 16.3115 15.7019 15.702C16.3114 15.0926 17.1381 14.7501 18 14.7501C18.2528 14.7493 18.5046 14.7795 18.75 14.8401C19.4634 15.0081 20.0989 15.4126 20.553 15.9879C21.007 16.5632 21.2529 17.2752 21.2506 18.0081C21.2483 18.741 20.9979 19.4515 20.5402 20.0238C20.0825 20.5962 19.4444 20.9967 18.73 21.1601Z" fill="#E20070"/>
    <path d="M17.5 19.7498C17.4015 19.7499 17.304 19.7304 17.213 19.6927C17.1221 19.6549 17.0395 19.5996 16.97 19.5298L15.97 18.5298C15.8963 18.4612 15.8372 18.3784 15.7962 18.2864C15.7552 18.1944 15.7332 18.0951 15.7314 17.9944C15.7296 17.8937 15.7481 17.7936 15.7858 17.7002C15.8236 17.6069 15.8797 17.522 15.9509 17.4508C16.0222 17.3796 16.107 17.3234 16.2004 17.2857C16.2938 17.248 16.3938 17.2295 16.4945 17.2313C16.5952 17.233 16.6945 17.2551 16.7865 17.2961C16.8785 17.3371 16.9613 17.3962 17.03 17.4698L17.5 17.9398L18.97 16.4698C19.1121 16.3374 19.3002 16.2652 19.4945 16.2687C19.6888 16.2721 19.8742 16.3508 20.0116 16.4882C20.149 16.6256 20.2277 16.811 20.2311 17.0053C20.2346 17.1996 20.1625 17.3877 20.03 17.5298L18.03 19.5298C17.9605 19.5996 17.8779 19.6549 17.7869 19.6927C17.696 19.7304 17.5984 19.7499 17.5 19.7498Z" fill="#E20070"/>
</svg>
