<svg width="24" height="24" viewBox="0 0 24 24" fill="none" xmlns="http://www.w3.org/2000/svg">
    <path fill-rule="evenodd" clip-rule="evenodd" d="M20.5188 8.22266C21.3479 8.22266 22.02 9.16096 22.02 10.3184V15.0061C22.02 15.486 21.6286 15.8774 21.1487 15.8774H16.4258V8.22266H20.5188Z" fill="#305CDE"/>
    <path fill-rule="evenodd" clip-rule="evenodd" d="M17.3724 19.3751C18.2014 19.3751 18.8735 18.4368 18.8735 17.2793V10.5182C18.8735 9.25038 19.6096 8.22266 20.5177 8.22266H13.2793V19.3751H17.3724Z" fill="#305CDE"/>
    <path fill-rule="evenodd" clip-rule="evenodd" d="M5.1582 16.8549C5.1582 18.247 5.89433 19.3756 6.8024 19.3756H17.3723C16.4642 19.3756 15.7281 18.3479 15.7281 17.0801V3.41226C15.7281 2.93241 15.3367 2.54102 14.8568 2.54102H7.89324L5.15825 5.27601L5.1582 16.8549Z" fill="#305CDE"/>
    <path fill-rule="evenodd" clip-rule="evenodd" d="M5.1582 5.27601H7.02195C7.5018 5.27601 7.89324 4.88462 7.89324 4.40471V2.54102L5.1582 5.27601Z" fill="#305CDE"/>
    <path d="M9.15933 20.2247C10.8017 18.5823 10.8017 15.9196 9.15933 14.2773C7.51701 12.635 4.85429 12.635 3.21197 14.2773C1.56965 15.9196 1.56965 18.5823 3.21197 20.2247C4.85429 21.867 7.51701 21.867 9.15933 20.2247Z" fill="#305CDE"/>
    <path fill-rule="evenodd" clip-rule="evenodd" d="M8.30536 15.7327C8.42935 15.8541 8.43198 16.0519 8.31328 16.1759L5.80446 18.7638C5.67846 18.8947 5.46482 18.8895 5.34544 18.7533L4.05016 17.2707C3.93674 17.1388 3.94994 16.9409 4.08179 16.8275C4.21106 16.7141 4.40891 16.7273 4.52234 16.8592L5.59341 18.0832L7.86213 15.7406C7.98352 15.6167 8.18138 15.614 8.30536 15.7327ZM14.1618 9.18242C14.1618 9.35651 14.022 9.49634 13.8506 9.49634H7.03648C6.99522 9.49647 6.95434 9.48843 6.9162 9.4727C6.87806 9.45697 6.8434 9.43385 6.81422 9.40468C6.78505 9.3755 6.76193 9.34085 6.7462 9.3027C6.73047 9.26456 6.72243 9.22368 6.72256 9.18242C6.72256 9.01096 6.86238 8.87114 7.03648 8.87114H13.8506C14.022 8.87114 14.1618 9.01096 14.1618 9.18242ZM14.1618 7.23026C14.1618 7.40172 14.022 7.54154 13.8506 7.54154H7.03648C6.86234 7.54154 6.72256 7.40172 6.72256 7.23026C6.72243 7.189 6.73047 7.14812 6.7462 7.10998C6.76193 7.07183 6.78505 7.03718 6.81422 7.008C6.8434 6.97883 6.87806 6.95571 6.9162 6.93998C6.95434 6.92425 6.99522 6.91621 7.03648 6.91634H13.8506C14.022 6.91634 14.1618 7.05616 14.1618 7.23026ZM14.1618 11.1372C14.1618 11.3087 14.022 11.4485 13.8506 11.4485H7.03648C6.86234 11.4485 6.72256 11.3087 6.72256 11.1372C6.72243 11.096 6.73047 11.0551 6.7462 11.0169C6.76193 10.9788 6.78505 10.9441 6.81422 10.915C6.8434 10.8858 6.87806 10.8627 6.9162 10.8469C6.95434 10.8312 6.99522 10.8232 7.03648 10.8233H13.8506C14.022 10.8233 14.1618 10.9631 14.1618 11.1372ZM21.7067 15.0073C21.7067 15.3133 21.4561 15.5639 21.1474 15.5639H19.1873V10.5199C19.1873 9.44364 19.7968 8.53615 20.5169 8.53615C21.1606 8.53615 21.7067 9.35392 21.7067 10.3194V15.0073ZM18.5595 10.5199C18.5595 9.76202 18.792 9.05892 19.2401 8.53615H16.0402V17.0808C16.0402 18.1545 16.6496 19.062 17.3724 19.062C18.0161 19.062 18.5596 18.2468 18.5596 17.2813L18.5595 10.5199ZM10.3261 19.062H16.0956C15.6529 18.5727 15.4149 17.8079 15.4149 17.0808V3.41301C15.4149 3.10437 15.1643 2.85376 14.8557 2.85376H8.20514V4.40493C8.20514 5.05917 7.67488 5.58943 7.02064 5.58943H5.47211V12.7913C8.22554 12.3533 10.706 14.4821 10.706 17.2523C10.706 17.896 10.5714 18.508 10.3261 19.062ZM6.18698 21.146C8.33435 21.146 10.0807 19.3997 10.0807 17.2523C10.0807 15.1075 8.33435 13.3612 6.18698 13.3612C4.04224 13.3612 2.29586 15.1075 2.29586 17.2523C2.29586 19.3997 4.04224 21.146 6.18698 21.146ZM7.57989 3.2969V4.40488C7.57989 4.71352 7.32928 4.96413 7.02064 4.96413H5.91266L7.57989 3.2969ZM21.8333 8.6548C21.4904 8.17466 21.0234 7.9109 20.5169 7.9109H16.0402V3.41301C16.0402 2.75877 15.5099 2.22852 14.8557 2.22852H7.89381C7.80938 2.22852 7.73022 2.26015 7.67219 2.32087L4.93653 5.05389C4.8785 5.11456 4.84418 5.19372 4.84418 5.27551V12.9365C3.00544 13.5115 1.66797 15.2289 1.66797 17.2523C1.66797 19.7453 3.69664 21.7713 6.18698 21.7713C7.78302 21.7713 9.18645 20.9404 9.99107 19.6899H17.3724C17.8762 19.6899 18.3432 19.4235 18.6888 18.9433C19.0106 18.4949 19.1873 17.9039 19.1873 17.2813V16.1918H21.1474C21.8017 16.1918 22.3319 15.6589 22.3319 15.0073V10.3195C22.3319 9.6942 22.1552 9.10332 21.8333 8.6548Z" fill="white"/>
</svg>
