<svg width="24" height="24" viewBox="0 0 24 24" fill="none" xmlns="http://www.w3.org/2000/svg">
    <g clip-path="url(#clip0_17024_5406)">
        <path d="M12 0C5.37284 0 0 5.37284 0 12C0 18.6272 5.37284 24 12 24C18.6272 24 24 18.6272 24 12C24 5.37284 18.6272 0 12 0ZM15.4469 16.7309C14.9235 17.3679 14.242 17.7975 13.4469 18.0148C13.1012 18.1086 12.9432 18.2914 12.963 18.6519C12.9778 19.0074 12.963 19.358 12.958 19.7136C12.958 20.0296 12.7951 20.1975 12.4839 20.2074C12.2815 20.2123 12.079 20.2173 11.8765 20.2173C11.6988 20.2173 11.521 20.2173 11.3432 20.2123C11.0074 20.2074 10.8494 20.0148 10.8494 19.6889C10.8444 19.4321 10.8444 19.1704 10.8444 18.9136C10.8395 18.3407 10.8198 18.321 10.2716 18.2321C9.57037 18.1185 8.87901 17.9605 8.23704 17.6494C7.73333 17.4025 7.67901 17.279 7.82222 16.7457C7.93086 16.3506 8.03951 15.9556 8.16296 15.5654C8.25185 15.279 8.3358 15.1506 8.48889 15.1506C8.57778 15.1506 8.69136 15.1951 8.84444 15.2741C9.55556 15.6444 10.3111 15.8519 11.1062 15.9506C11.2395 15.9654 11.3728 15.9753 11.5062 15.9753C11.8765 15.9753 12.237 15.9062 12.5877 15.7531C13.4716 15.3679 13.6099 14.3457 12.8642 13.7333C12.6123 13.5259 12.321 13.3728 12.0198 13.2395C11.2444 12.8988 10.4395 12.642 9.70864 12.2025C8.52346 11.4914 7.77284 10.5185 7.86173 9.07654C7.96049 7.44691 8.88395 6.42963 10.3802 5.88642C10.9975 5.6642 11.0025 5.66914 11.0025 5.02716C11.0025 4.80988 10.9975 4.59259 11.0074 4.37037C11.0222 3.88642 11.1012 3.80247 11.5852 3.78765H12.1481C13.0667 3.78765 13.0667 3.82716 13.0716 4.81975C13.0765 5.55062 13.0765 5.55062 13.8025 5.6642C14.3605 5.75309 14.8889 5.91605 15.4025 6.14321C15.6839 6.26667 15.7926 6.4642 15.7037 6.76543C15.5753 7.20988 15.4519 7.65926 15.3136 8.09876C15.2247 8.36543 15.1407 8.48889 14.9827 8.48889C14.8938 8.48889 14.7852 8.45432 14.6469 8.38519C13.9358 8.03951 13.1901 7.8716 12.4099 7.8716C12.3111 7.8716 12.2074 7.87654 12.1086 7.88148C11.8765 7.8963 11.6494 7.92593 11.4321 8.01975C10.6617 8.35555 10.5383 9.20494 11.1951 9.72839C11.5259 9.99506 11.9062 10.1827 12.2963 10.3457C12.9778 10.6272 13.6593 10.8988 14.3062 11.2543C16.3407 12.3901 16.8938 14.9728 15.4469 16.7309Z" fill="#E20070"/>
    </g>
    <defs>
        <clipPath id="clip0_17024_5406">
            <rect width="24" height="24" fill="white"/>
        </clipPath>
    </defs>
</svg>
