<svg width="21" height="20" viewBox="0 0 21 20" fill="none" xmlns="http://www.w3.org/2000/svg">
    <g clip-path="url(#clip0_17005_1157)">
        <path d="M9.33985 8.35937C9.54297 7.37383 9.79883 6.38789 10.0402 5.40312C10.1621 4.91992 10.8379 4.91992 10.9598 5.40312C11.2031 6.38672 11.457 7.37266 11.6602 8.35937C11.7383 8.73476 11.5973 9.12656 11.3105 9.39805C11.0937 9.6094 10.8028 9.72769 10.5 9.72769C10.1972 9.72769 9.90632 9.6094 9.68946 9.39805C9.40274 9.12539 9.26211 8.73359 9.33985 8.35937Z" fill="#E20070"/>
        <path d="M10.4895 20C11.9403 20 13.175 19.9406 14.1578 19.868C15.7285 19.7508 17.0719 18.632 17.4989 17.1219C18.4694 13.688 19.44 10.2724 20.4106 6.875C20.5299 6.46622 20.5299 6.03183 20.4106 5.62305C20.2403 5.05117 19.9141 4.50547 19.4684 4.02695C17.3559 1.60742 14.1289 -0.00234411 10.5 -3.56729e-07C6.86136 -0.00273473 3.62503 1.61641 1.51331 4.04766C1.41605 4.15313 1.32464 4.26211 1.23988 4.37344C0.946956 4.75032 0.72559 5.17769 0.586751 5.63438C0.470233 6.03986 0.471317 6.47011 0.589876 6.875C1.55967 10.2656 2.52959 13.6792 3.49964 17.1156C3.9262 18.6238 5.26605 19.7418 6.8348 19.8613C7.84378 19.9379 9.08909 20 10.4895 20ZM16.0028 5.87969C15.3215 7.19427 14.6404 8.51081 13.9594 9.8293C13.8862 9.9711 13.7757 10.0903 13.6399 10.174C13.504 10.2578 13.3479 10.303 13.1883 10.3047C11.3183 10.3206 9.44821 10.3198 7.57816 10.3023C7.41248 10.3005 7.25071 10.2518 7.1115 10.162C6.9723 10.0721 6.86134 9.94475 6.79144 9.79453C6.18128 8.48672 5.57126 7.18073 4.96136 5.87656C4.88266 5.71111 4.85917 5.52476 4.89433 5.34494C4.92949 5.16513 5.02145 5.00136 5.15667 4.87773C5.42159 4.63801 5.70216 4.41617 5.99652 4.21367L6.47191 4.72578C6.76527 5.03828 7.27386 4.76094 7.1637 4.34648C7.09964 4.11211 7.03675 3.87773 6.97308 3.64102C7.89544 3.18465 8.89779 2.91214 9.92425 2.83867C9.98402 3.08047 10.0446 3.32227 10.1035 3.56367C10.125 3.6525 10.1756 3.73154 10.2474 3.78807C10.3192 3.8446 10.4079 3.87534 10.4993 3.87534C10.5906 3.87534 10.6793 3.8446 10.7511 3.78807C10.8229 3.73154 10.8735 3.6525 10.895 3.56367C10.9543 3.32201 11.0142 3.08008 11.0746 2.83789C12.1012 2.90945 13.104 3.18039 14.027 3.63555C13.9629 3.87279 13.8989 4.10977 13.8348 4.34648C13.7246 4.76133 14.2332 5.04023 14.5266 4.72578C14.686 4.55365 14.8459 4.38125 15.0063 4.20859C15.2882 4.40127 15.5575 4.61172 15.8125 4.83867C15.9558 4.96609 16.0524 5.13778 16.0869 5.32643C16.1214 5.51507 16.0918 5.70982 16.0028 5.87969Z" fill="#E20070"/>
    </g>
    <defs>
        <clipPath id="clip0_17005_1157">
            <rect width="20" height="20" fill="white" transform="translate(0.5)"/>
        </clipPath>
    </defs>
</svg>
